<svg width="1644.000000pt" height="1095.000000pt" viewBox="0 0 1644.000000 1095.000000" xmlns="http://www.w3.org/2000/svg">
  <g transform="translate(0.000000,1095.000000) scale(0.100000,-0.100000)" fill="#fefefe" stroke="none">
    <path d="M0 5475 l0 -5475 8220 0 8220 0 0 5475 0 5475 -8220 0 -8220 0 0
-5475z m10185 3230 c52 -13 119 -35 148 -49 28 -13 68 -31 87 -40 73 -32 162
-89 234 -149 l45 -39 38 -9 c21 -5 70 -9 109 -9 193 0 485 -96 644 -210 8 -6
32 -21 52 -33 37 -22 199 -131 228 -154 332 -256 547 -486 766 -818 68 -103
115 -185 134 -235 7 -19 24 -59 37 -88 12 -29 23 -55 23 -58 0 -7 71 -171 128
-294 13 -30 71 -151 128 -268 57 -116 104 -215 104 -218 0 -13 75 -121 94
-134 12 -8 41 -22 66 -31 25 -9 70 -27 100 -41 30 -14 87 -40 125 -57 39 -17
81 -37 95 -45 14 -8 43 -25 64 -37 22 -12 46 -28 54 -35 7 -8 23 -19 35 -26
23 -12 238 -170 272 -200 11 -9 40 -33 65 -53 75 -60 125 -110 176 -177 27
-35 56 -68 64 -75 8 -6 12 -14 8 -18 -15 -15 -201 -58 -308 -71 -63 -8 -142
-22 -175 -30 -33 -9 -93 -23 -133 -32 l-73 -17 6 -25 5 -25 61 -57 c33 -31 92
-75 132 -99 185 -109 326 -221 428 -340 30 -35 80 -89 112 -122 32 -33 64 -74
72 -93 l13 -33 -13 5 c-7 3 -16 11 -18 18 -6 14 -121 103 -224 172 -37 25
-115 68 -173 95 -184 86 -290 146 -361 203 -14 12 -41 32 -60 46 -86 63 -187
193 -219 282 l-14 37 12 14 c7 8 40 22 75 32 34 9 67 21 72 26 6 4 55 19 109
34 103 26 266 45 399 45 l77 0 0 14 c0 14 -37 56 -80 90 -12 10 -48 33 -79 51
-47 28 -135 89 -176 123 -5 4 -28 19 -50 32 -22 13 -46 30 -53 37 -8 8 -28 21
-45 30 -18 9 -34 19 -37 22 -10 12 -124 62 -185 81 -22 7 -53 18 -70 26 -16 7
-64 23 -105 34 -87 26 -200 75 -200 87 0 5 -9 18 -19 30 -11 11 -31 42 -46 69
-91 171 -117 223 -161 329 -9 22 -47 103 -84 180 -105 218 -139 293 -177 395
-35 94 -98 215 -176 339 -23 36 -45 71 -49 76 -4 6 -29 39 -55 75 -128 177
-335 397 -488 519 -38 31 -72 59 -75 62 -3 3 -41 30 -85 59 -44 30 -82 57 -85
61 -3 3 -21 14 -40 24 -19 9 -42 23 -50 30 -27 23 -223 120 -310 153 -47 17
-107 36 -135 41 -27 5 -117 12 -198 16 l-148 7 -75 59 c-40 32 -78 59 -84 59
-5 0 -10 4 -10 8 0 14 -306 162 -334 162 -8 0 -17 4 -20 9 -3 5 -32 12 -65 16
l-59 7 -31 -17 c-36 -18 -51 -49 -51 -105 l0 -38 36 -68 c20 -37 63 -102 97
-145 34 -42 69 -87 77 -100 8 -12 27 -36 41 -53 14 -17 34 -47 45 -66 10 -19
22 -37 26 -40 15 -12 73 -154 115 -285 60 -186 102 -307 112 -319 4 -6 14 -27
21 -46 14 -36 74 -140 100 -174 8 -10 33 -38 56 -61 22 -24 49 -59 58 -80 l18
-36 -7 -42 c-4 -23 -11 -48 -16 -57 -4 -8 -18 -46 -30 -85 -12 -38 -25 -74
-29 -80 -15 -21 -41 -144 -57 -278 l-17 -137 13 -118 c18 -166 37 -261 72
-350 44 -114 70 -160 112 -198 l37 -34 29 0 29 0 5 33 c3 17 9 64 12 102 4 39
18 124 31 189 l24 119 31 61 c17 33 37 65 43 72 6 6 29 35 51 63 22 28 42 51
46 51 3 0 11 -19 18 -42 28 -97 164 -392 241 -523 17 -27 40 -69 52 -92 12
-24 26 -43 30 -43 4 0 8 -5 8 -11 0 -10 146 -238 160 -249 3 -3 17 -21 30 -40
13 -19 30 -39 37 -43 7 -4 13 -13 13 -19 0 -5 -15 3 -34 18 -19 16 -56 47 -82
68 -58 46 -264 254 -264 265 0 4 -11 21 -24 36 -14 16 -57 93 -97 172 -39 79
-77 143 -84 143 l-12 0 -11 -57 c-6 -32 -16 -98 -22 -148 -6 -49 -20 -117 -31
-150 l-19 -60 -29 -27 c-16 -15 -41 -32 -56 -38 -69 -26 -155 0 -224 69 -73
73 -153 214 -188 331 -40 134 -52 205 -59 350 l-7 135 12 103 c7 56 19 126 27
155 8 28 25 99 38 157 13 58 31 122 40 142 9 21 16 50 16 66 l0 29 -32 30
c-46 43 -64 66 -89 115 -12 24 -25 45 -29 48 -14 10 -99 198 -129 285 -17 50
-36 99 -41 110 -5 11 -30 86 -55 167 -25 81 -49 148 -53 150 -4 2 -16 19 -26
38 -22 38 -118 168 -181 245 -53 65 -97 135 -129 208 l-26 58 0 54 0 54 24 53
c13 29 38 67 56 85 38 39 119 72 177 72 24 1 86 -10 138 -24z m702 -804 l49
-40 13 -39 14 -40 -7 -36 c-4 -20 -18 -48 -31 -63 l-24 -28 -35 75 c-19 41
-58 102 -86 135 l-51 60 33 6 c18 4 43 7 54 8 l21 1 50 -39z m-8457 -3170 c41
-10 87 -23 101 -29 14 -5 50 -33 81 -61 l56 -51 40 -83 c47 -98 64 -137 88
-197 9 -25 21 -50 25 -56 5 -6 15 -30 23 -53 16 -43 20 -52 80 -184 20 -42 36
-79 36 -82 0 -2 14 -34 30 -70 17 -36 30 -68 30 -72 0 -3 14 -35 30 -70 17
-34 30 -65 30 -68 0 -2 11 -28 24 -57 13 -29 40 -91 61 -138 21 -47 48 -109
61 -138 13 -29 24 -55 24 -59 0 -3 11 -30 25 -59 14 -29 29 -64 35 -79 13 -33
38 -32 51 3 5 15 27 65 49 112 72 160 90 201 90 205 0 3 16 40 36 82 20 43 44
96 54 118 10 22 32 70 49 108 17 37 31 69 31 72 0 2 16 40 36 82 55 119 80
173 104 228 12 28 38 83 56 123 19 40 34 74 34 77 0 7 68 154 92 200 30 56 67
99 113 132 49 35 80 48 170 68 l70 16 70 -11 c39 -6 104 -20 145 -31 l75 -20
45 -33 c25 -18 56 -53 70 -77 l25 -44 3 -867 3 -868 -201 0 -200 0 0 815 0
815 -13 0 c-7 0 -19 -16 -26 -36 -7 -20 -38 -88 -67 -150 -30 -62 -54 -116
-54 -118 0 -3 -15 -38 -34 -78 -18 -40 -46 -100 -61 -133 -15 -33 -38 -85 -52
-115 -37 -82 -54 -119 -133 -295 -40 -88 -80 -178 -90 -200 -10 -22 -39 -87
-65 -145 -88 -199 -106 -231 -148 -277 l-42 -46 -55 -25 -55 -26 -117 -4 -117
-4 -57 18 c-73 23 -124 58 -168 116 -20 26 -36 49 -36 52 0 3 -18 44 -41 93
-22 48 -49 106 -59 128 -10 22 -34 75 -54 118 -20 43 -36 79 -36 82 0 2 -22
51 -50 109 -27 58 -50 108 -50 111 0 2 -15 37 -34 77 -18 40 -44 96 -56 123
-12 28 -30 68 -40 90 -10 22 -40 87 -65 145 -26 58 -59 132 -74 165 -15 33
-43 95 -62 137 -19 43 -40 78 -46 78 l-13 0 0 -810 0 -810 -200 0 -200 0 2
873 3 872 29 47 30 47 40 23 c23 13 57 29 76 36 36 14 209 50 245 51 11 0 54
-8 95 -18z m6870 -156 l0 -134 -669 -3 -669 -3 -43 -30 -42 -30 -13 -35 -12
-35 -1 -112 c-1 -62 4 -135 10 -164 l11 -51 28 -29 c15 -16 44 -36 66 -46 l39
-17 380 -7 380 -7 85 -17 c47 -9 101 -24 120 -32 127 -57 163 -78 209 -119 29
-26 63 -69 77 -95 l24 -48 0 -204 0 -205 -25 -56 c-14 -31 -43 -74 -65 -96
-37 -36 -140 -110 -153 -110 -4 0 -30 -11 -59 -24 -29 -13 -87 -32 -128 -42
l-75 -18 -662 -3 -663 -4 0 130 0 131 600 0 599 0 54 14 c30 8 68 21 83 29 37
19 70 55 83 90 l11 28 0 123 c0 68 -3 138 -6 155 -11 53 -71 102 -154 126 -14
4 -189 11 -390 15 l-365 7 -105 27 c-131 34 -229 81 -299 143 l-54 47 -29 63
-28 63 0 169 0 169 24 72 25 73 28 30 c75 82 130 116 257 159 l90 31 95 7 c53
4 374 8 714 9 l617 1 0 -135z m3002 -622 l3 -758 22 -36 c13 -19 37 -43 55
-52 18 -9 64 -24 101 -32 l68 -15 590 0 589 0 0 -130 0 -130 -557 0 -558 0
-108 10 c-110 11 -236 33 -272 49 -11 5 -40 17 -65 27 -106 44 -189 120 -240
219 l-25 50 -3 778 -2 777 200 0 200 0 2 -757z m-1082 719 c47 -13 118 -40
159 -60 l74 -37 58 -58 58 -59 26 -77 25 -76 0 -558 0 -559 -16 -56 c-9 -32
-23 -70 -32 -87 -22 -44 -98 -112 -153 -138 -27 -12 -48 -28 -49 -34 0 -7 3
-13 8 -13 4 0 35 -26 68 -58 34 -31 97 -88 140 -127 43 -38 99 -89 123 -112
l45 -43 -223 0 -224 0 -86 77 c-47 43 -106 97 -131 119 -25 23 -60 54 -78 69
l-32 27 -103 -6 c-56 -3 -243 -9 -415 -12 l-313 -6 -83 16 c-45 10 -105 23
-132 30 -59 17 -181 72 -203 92 -73 68 -104 105 -122 144 -11 25 -26 56 -32
69 l-12 24 0 587 0 587 11 24 c7 13 20 43 30 67 10 24 41 67 70 95 l52 52 64
33 c58 28 147 57 258 82 19 5 271 7 560 6 l525 -2 85 -22z m-4111 -1309 l0
-768 -22 -58 c-54 -142 -183 -234 -407 -289 l-85 -22 -722 -3 -723 -4 0 130 0
131 665 0 664 0 53 14 c83 22 105 33 137 67 l31 32 0 107 0 108 -512 5 -513 5
-85 16 c-47 10 -89 21 -94 26 -6 6 -18 10 -27 10 -9 0 -52 18 -95 40 l-79 39
-51 49 c-27 26 -61 70 -75 98 l-24 49 0 487 0 488 198 0 197 0 0 -473 0 -472
25 -38 c14 -20 45 -47 68 -59 l42 -23 518 -3 517 -3 0 541 0 540 200 0 200 0
-1 -767z m7256 -19 c65 -33 111 -77 143 -139 l26 -50 0 -70 1 -70 -26 -55
c-33 -68 -69 -108 -134 -146 l-50 -29 -85 0 -85 0 -42 23 c-76 40 -113 79
-154 162 l-13 25 0 80 -1 80 24 48 c44 85 118 143 216 168 46 12 125 0 180
-27z" />
    <path d="M10192 4430 c-23 -5 -64 -21 -90 -35 l-48 -26 -27 -42 -27 -41 0
-522 0 -521 20 -45 c11 -25 31 -56 45 -70 14 -14 53 -36 88 -49 l62 -23 238
-4 237 -4 0 14 c0 8 -37 48 -82 89 -46 41 -103 93 -128 115 -25 23 -61 55 -80
73 l-34 31 223 0 223 0 67 -58 c86 -75 157 -139 198 -179 19 -18 42 -33 51
-33 27 0 60 27 90 73 l27 42 0 535 0 535 -32 47 -33 46 -57 29 -58 28 -415 2
c-228 1 -434 -3 -458 -7z" />
    <path d="M14125 3300 l-60 -29 -28 -43 c-15 -23 -32 -61 -38 -83 l-11 -40 6
-57 6 -57 21 -38 c30 -55 37 -62 94 -94 l50 -29 71 0 70 0 40 19 c53 26 110
90 123 138 14 49 13 138 -2 185 -7 20 -25 54 -42 74 l-30 37 -53 24 -53 23
-52 0 -52 -1 -60 -29z m193 -70 l42 -19 10 -27 c6 -15 8 -36 4 -48 -9 -30 -45
-66 -66 -66 l-18 0 0 -15 c0 -9 18 -44 40 -78 l39 -62 -16 -4 -16 -3 -19 23
c-10 13 -32 48 -48 77 l-30 52 -35 0 -35 0 0 -75 0 -75 -25 0 -25 0 0 170 0
170 78 0 77 0 43 -20z" />
    <path d="M14170 3155 l0 -55 68 0 68 0 12 12 c17 17 15 64 -4 82 l-15 16 -65
0 -64 0 0 -55z" />
  </g>
  <g transform="translate(0.000000,1095.000000) scale(0.100000,-0.100000)" fill="#00618a" stroke="none">
    <path d="M9943 8719 c-28 -11 -66 -34 -83 -52 -18 -18 -43 -56 -56 -85 l-24
-53 0 -64 0 -64 26 -58 c32 -73 76 -143 129 -208 63 -77 159 -207 181 -245 10
-19 22 -36 26 -38 4 -2 28 -69 53 -150 25 -81 50 -156 55 -167 5 -11 24 -60
41 -110 30 -87 115 -275 129 -285 4 -3 17 -24 29 -48 25 -49 43 -72 89 -115
17 -17 32 -39 32 -49 0 -10 -7 -35 -16 -56 -9 -20 -27 -84 -40 -142 -13 -58
-30 -129 -38 -157 -8 -29 -20 -99 -27 -155 l-12 -103 7 -145 c7 -154 18 -223
59 -360 24 -80 56 -147 121 -248 38 -61 101 -121 149 -143 l42 -19 47 0 c58 0
92 12 129 48 l29 27 19 60 c11 33 27 114 35 180 9 66 20 133 24 149 l8 29 73
-144 c39 -80 83 -158 97 -174 13 -15 24 -32 24 -36 0 -9 198 -211 250 -255 19
-16 51 -41 70 -55 19 -14 75 -65 123 -112 82 -79 121 -107 134 -94 2 3 -4 12
-14 21 -70 59 -172 167 -215 229 -12 17 -25 34 -28 37 -14 11 -160 239 -160
249 0 6 -4 11 -8 11 -4 0 -18 19 -30 43 -12 23 -35 65 -52 92 -77 131 -213
426 -241 522 -6 23 -18 44 -24 47 l-13 5 -44 -56 c-23 -30 -48 -61 -54 -67 -6
-7 -26 -39 -43 -72 l-31 -61 -24 -119 c-13 -65 -27 -150 -31 -189 -3 -38 -9
-85 -12 -102 l-5 -33 -19 0 c-27 0 -90 61 -116 112 -41 79 -82 196 -97 275 -8
43 -20 130 -27 193 l-12 115 17 130 c16 128 41 250 56 270 4 6 17 42 29 80 12
39 26 77 31 87 5 9 12 39 16 66 l6 49 -18 38 c-9 20 -36 56 -58 80 -23 23 -48
51 -56 61 -26 34 -86 138 -100 174 -7 19 -17 40 -21 46 -10 12 -52 133 -112
319 -42 131 -100 273 -115 285 -4 3 -16 21 -26 40 -11 19 -31 49 -45 66 -14
17 -33 41 -41 53 -8 13 -43 58 -77 100 -72 91 -133 201 -133 241 0 46 17 78
50 95 l30 16 50 -7 c28 -4 53 -11 56 -15 3 -5 12 -9 20 -9 28 0 334 -148 334
-162 0 -4 5 -8 10 -8 6 0 44 -27 84 -59 l75 -59 148 -7 c81 -4 171 -11 198
-16 28 -5 88 -24 135 -41 87 -33 283 -130 310 -153 8 -7 31 -21 50 -30 19 -10
37 -21 40 -24 3 -4 41 -31 85 -61 44 -29 82 -56 85 -59 3 -3 37 -31 75 -62
153 -122 360 -342 488 -519 26 -36 51 -69 55 -75 4 -5 26 -40 49 -76 78 -124
141 -245 176 -339 38 -102 72 -177 177 -395 37 -77 75 -158 84 -180 44 -106
70 -158 161 -329 15 -27 35 -58 46 -69 10 -12 19 -25 19 -30 0 -12 113 -61
200 -87 41 -11 89 -27 105 -34 17 -8 48 -19 70 -26 61 -19 175 -69 185 -81 3
-3 19 -13 37 -22 17 -9 37 -22 45 -30 7 -7 31 -24 53 -37 22 -13 45 -28 50
-32 41 -34 129 -95 176 -123 64 -37 91 -58 132 -100 l30 -30 -64 -2 c-35 -2
-120 -7 -189 -13 l-125 -9 -100 -26 c-54 -14 -104 -30 -110 -34 -5 -5 -38 -17
-73 -26 l-64 -18 -14 -23 -15 -22 24 -50 c30 -62 62 -114 90 -148 44 -51 93
-100 126 -124 19 -14 46 -34 60 -46 71 -57 177 -117 361 -203 58 -27 136 -70
173 -95 94 -63 215 -155 224 -170 11 -19 63 -50 63 -38 0 30 -48 108 -98 159
-31 33 -81 87 -111 122 -102 119 -243 231 -426 339 -80 47 -183 135 -195 166
l-7 21 71 17 c39 9 98 23 131 32 33 8 112 22 175 30 63 7 142 21 175 31 33 9
77 21 98 26 l37 10 0 19 c0 10 -6 23 -12 27 -7 4 -35 36 -62 71 -51 67 -101
117 -176 177 -25 20 -54 44 -65 53 -34 30 -249 188 -272 200 -12 7 -28 18 -35
26 -8 7 -32 23 -54 35 -21 12 -50 29 -64 37 -14 8 -56 28 -95 45 -38 17 -95
43 -125 57 -30 14 -75 32 -100 41 -25 9 -54 23 -66 31 -19 13 -94 121 -94 134
0 3 -47 102 -104 218 -57 117 -115 238 -128 268 -57 123 -128 287 -128 294 0
3 -11 29 -23 58 -13 29 -30 69 -37 88 -19 50 -66 132 -134 235 -219 332 -434
562 -766 818 -29 23 -191 132 -228 154 -20 12 -44 27 -52 33 -87 62 -220 124
-345 158 -142 40 -212 52 -299 52 -39 0 -88 4 -109 9 l-38 9 -45 39 c-72 60
-161 117 -234 149 -19 9 -59 27 -87 40 -74 35 -234 74 -296 73 l-52 0 -52 -20z" />
    <path d="M10753 7943 l-33 -4 0 -13 c0 -6 23 -39 51 -71 l50 -60 36 -77 c20
-43 39 -78 43 -78 12 0 48 45 59 73 15 39 14 88 -3 129 l-15 34 -47 37 -47 37
-31 -2 c-17 0 -46 -3 -63 -5z" />
    <path d="M2210 4740 c-105 -20 -145 -34 -206 -68 l-40 -23 -30 -47 -29 -47 -3
-882 -2 -883 210 0 210 0 2 810 3 810 34 -78 c19 -42 47 -104 62 -137 15 -33
48 -107 74 -165 25 -58 55 -123 65 -145 10 -22 28 -62 40 -90 12 -27 38 -83
56 -123 19 -40 34 -75 34 -77 0 -3 23 -53 50 -111 28 -58 50 -107 50 -109 0
-3 16 -39 36 -82 20 -43 44 -96 54 -118 10 -22 37 -80 59 -128 23 -49 41 -90
41 -93 0 -3 16 -26 36 -52 44 -58 95 -93 168 -116 l56 -18 128 4 127 4 55 26
55 25 42 46 c42 46 60 78 148 277 26 58 55 123 65 145 10 22 50 112 90 200 79
176 96 213 133 295 14 30 37 82 52 115 15 33 43 93 61 133 19 40 34 75 34 77
0 3 19 44 42 92 22 49 54 117 69 153 l28 65 1 -817 0 -818 210 0 211 0 -3 878
-3 877 -25 44 c-14 24 -45 59 -70 77 l-45 33 -75 20 c-41 11 -109 25 -151 31
l-76 12 -74 -16 c-93 -21 -124 -33 -174 -69 -46 -33 -83 -76 -113 -132 -24
-46 -92 -193 -92 -200 0 -3 -15 -37 -34 -77 -18 -40 -44 -95 -56 -123 -24 -55
-49 -109 -104 -228 -20 -42 -36 -80 -36 -82 0 -3 -14 -35 -31 -72 -17 -38 -39
-86 -49 -108 -10 -22 -34 -75 -54 -118 -20 -42 -36 -79 -36 -82 0 -4 -18 -44
-96 -217 -24 -54 -44 -102 -44 -107 0 -5 -5 -13 -10 -16 l-10 -6 -10 26 c-5
14 -21 50 -35 79 -14 29 -25 56 -25 59 0 4 -11 30 -24 59 -13 29 -40 91 -61
138 -21 47 -48 109 -61 138 -13 29 -24 55 -24 57 0 3 -13 34 -30 68 -16 35
-30 67 -30 70 0 4 -13 36 -30 72 -16 36 -30 68 -30 70 0 3 -16 40 -36 82 -60
132 -64 141 -80 184 -8 23 -18 47 -23 53 -4 6 -16 31 -25 56 -24 60 -41 99
-88 197 l-40 83 -56 51 c-31 28 -67 56 -81 61 -44 18 -174 47 -206 47 -16 -1
-73 -9 -125 -19z" />
    <path d="M6700 3600 l0 -541 -507 3 -508 3 -42 23 c-23 12 -54 39 -68 59 l-25
38 0 472 0 473 -207 0 -208 0 0 -498 0 -497 24 -49 c14 -28 48 -72 75 -98 l51
-49 79 -39 c43 -22 86 -40 95 -40 9 0 21 -4 27 -10 5 -5 47 -16 94 -26 l85
-16 513 -5 512 -5 0 -98 0 -97 -31 -32 c-32 -34 -54 -45 -137 -67 l-53 -14
-664 0 -665 0 0 -141 0 -140 733 4 732 3 85 22 c164 40 282 104 350 188 19 24
45 69 57 101 l22 58 0 778 1 777 -210 0 -210 0 0 -540z" />
  </g>
  <g transform="translate(0.000000,1095.000000) scale(0.100000,-0.100000)" fill="#e38d00" stroke="none">
    <path d="M7959 4710 l-95 -7 -90 -31 c-127 -43 -182 -77 -257 -159 l-28 -30
-25 -73 -24 -72 0 -179 0 -179 28 -63 29 -63 54 -47 c70 -62 168 -109 299
-143 l105 -27 365 -7 c201 -4 376 -11 390 -15 83 -24 143 -73 154 -126 10 -51
7 -255 -5 -286 -13 -35 -46 -71 -83 -90 -15 -8 -53 -21 -83 -29 l-54 -14 -599
0 -600 0 0 -141 0 -140 673 4 672 3 75 18 c41 10 99 29 128 42 29 13 55 24 59
24 13 0 116 74 153 110 22 22 51 65 65 96 l25 56 0 215 0 214 -24 48 c-14 26
-48 69 -77 95 -46 41 -82 62 -209 119 -19 8 -73 23 -120 32 l-85 17 -380 7
-380 7 -39 17 c-22 10 -51 30 -66 46 l-28 29 -11 51 c-6 29 -11 98 -10 154 l1
102 12 35 13 35 42 30 43 30 669 3 669 3 0 144 0 145 -627 -1 c-346 -1 -671
-5 -724 -9z" />
    <path d="M11892 3933 l3 -788 25 -50 c51 -99 134 -175 240 -219 25 -10 54 -22
65 -27 36 -16 162 -38 272 -49 l108 -10 568 0 567 0 0 140 0 140 -589 0 -590
0 -68 15 c-37 8 -83 23 -101 32 -18 9 -42 33 -55 52 l-22 36 -3 758 -2 757
-210 0 -210 0 2 -787z" />
    <path d="M10040 4700 c-111 -25 -200 -54 -258 -82 l-64 -33 -52 -52 c-29 -28
-60 -71 -70 -95 -10 -24 -23 -54 -30 -67 l-11 -24 0 -597 0 -597 12 -24 c6
-13 21 -44 32 -69 18 -39 49 -76 122 -144 22 -20 144 -75 203 -92 27 -7 87
-21 132 -30 l83 -16 328 6 c180 4 367 9 416 12 l87 5 33 -26 c17 -15 52 -46
77 -69 25 -22 84 -76 131 -119 l86 -77 244 0 244 0 -55 53 c-31 28 -91 84
-134 122 -43 39 -106 96 -140 127 -33 32 -65 58 -70 58 -6 0 13 11 41 25 58
29 133 97 155 140 9 17 23 55 32 87 l16 56 0 569 0 568 -25 76 -26 77 -58 59
-58 58 -74 37 c-41 20 -112 47 -159 60 l-85 22 -535 2 c-294 1 -551 -1 -570
-6z m1073 -303 l57 -29 33 -46 32 -47 0 -525 0 -525 -27 -42 c-25 -39 -63 -73
-80 -73 -4 0 -22 15 -41 33 -41 40 -112 104 -198 179 l-67 58 -243 0 -244 0
41 -38 c22 -20 80 -73 129 -117 49 -44 109 -99 134 -123 l46 -43 -230 3 -230
4 -62 23 c-35 13 -74 35 -88 49 -14 14 -34 45 -45 70 l-20 45 0 511 0 512 27
41 27 42 48 26 c26 14 67 30 90 35 24 4 225 8 448 7 l405 -2 58 -28z" />
    <path d="M14175 3381 c-99 -26 -172 -83 -216 -168 l-24 -48 1 -90 0 -90 13
-25 c30 -61 43 -80 76 -109 20 -17 55 -41 78 -53 l42 -23 95 0 95 0 50 29 c65
38 101 78 134 146 l26 55 -1 80 0 80 -26 50 c-33 62 -78 106 -145 139 l-51 26
-59 5 c-32 2 -71 1 -88 -4z m157 -84 l53 -24 30 -37 c17 -20 35 -54 42 -74 15
-47 16 -116 2 -165 -13 -48 -70 -112 -123 -138 l-40 -19 -60 0 -61 0 -50 29
c-28 16 -56 35 -62 43 -28 34 -53 91 -59 135 l-6 49 11 39 c6 22 23 60 38 83
l28 43 60 29 60 29 42 1 42 0 53 -23z" />
    <path d="M14110 3080 l0 -180 35 0 35 0 0 75 0 75 24 0 24 0 23 -37 c12 -21
33 -55 47 -75 l25 -38 33 0 c19 0 34 2 34 5 0 2 -20 36 -45 74 -25 38 -45 72
-45 75 0 3 8 6 18 6 25 0 60 40 68 75 3 17 1 43 -5 58 l-11 28 -42 19 -43 20
-87 0 -88 0 0 -180z m194 104 c19 -18 21 -45 4 -62 l-12 -12 -58 0 -58 0 0 45
0 45 54 0 55 0 15 -16z" />
  </g>
  <g transform="translate(0.000000,1095.000000) scale(0.100000,-0.100000)" fill="#ebb150" stroke="none">
    <path d="M9295 4575 c0 -80 3 -145 8 -145 4 0 7 65 7 145 0 80 -3 145 -7 145
-5 0 -8 -65 -8 -145z" />
    <path d="M10098 4703 c7 -3 16 -2 19 1 4 3 -2 6 -13 5 l-19 -1 13 -5z" />
    <path d="M7830 4690 l-15 -10 12 0 c6 0 15 5 18 10 8 12 4 12 -15 0z" />
    <path d="M9689 4553 l-14 -18 18 14 c9 7 17 15 17 17 0 8 -8 3 -21 -13z" />
    <path d="M8088 4433 c7 -3 16 -2 19 1 4 3 -2 6 -13 5 l-19 -1 13 -5z" />
    <path d="M10125 4400 l-6 -10 15 6 c18 7 21 14 7 14 -6 0 -13 -4 -16 -10z" />
    <path d="M11160 4376 c0 -2 8 -10 18 -17 l17 -14 -14 18 c-13 16 -21 21 -21
13z" />
    <path d="M9561 4354 l1 -19 5 13 c3 7 2 16 -1 19 -3 4 -6 -2 -5 -13z" />
    <path d="M9555 3760 c0 -289 1 -407 2 -262 2 144 2 380 0 525 -1 144 -2 26 -2
-263z" />
    <path d="M7441 3984 l1 -19 5 13 c3 7 2 16 -1 19 -3 4 -6 -2 -5 -13z" />
    <path d="M8028 3893 c7 -3 16 -2 19 1 4 3 -2 6 -13 5 l-19 -1 13 -5z" />
    <path d="M8068 3883 c7 -3 16 -2 19 1 4 3 -2 6 -13 5 l-19 -1 13 -5z" />
    <path d="M8768 3873 c7 -3 16 -2 19 1 4 3 -2 6 -13 5 l-19 -1 13 -5z" />
    <path d="M7490 3866 c0 -2 8 -10 18 -17 l17 -14 -14 18 c-13 16 -21 21 -21 13z" />
    <path d="M7590 3776 c0 -2 8 -10 18 -17 l17 -14 -14 18 c-13 16 -21 21 -21 13z" />
    <path d="M9190 3706 c0 -2 8 -10 18 -17 l17 -14 -14 18 c-13 16 -21 21 -21 13z" />
    <path d="M8048 3633 c6 -2 18 -2 25 0 6 3 1 5 -13 5 -14 0 -19 -2 -12 -5z" />
    <path d="M8658 3623 c7 -3 16 -2 19 1 4 3 -2 6 -13 5 l-19 -1 13 -5z" />
    <path d="M9270 3591 c0 -6 4 -13 10 -16 l10 -6 -6 15 c-7 18 -14 21 -14 7z" />
    <path d="M10880 3326 c0 -2 8 -10 18 -17 l17 -14 -14 18 c-13 16 -21 21 -21
13z" />
    <path d="M14165 3310 l-6 -10 15 6 c18 7 21 14 7 14 -6 0 -13 -4 -16 -10z" />
    <path d="M14290 3316 c0 -2 7 -7 16 -10 l15 -6 -6 10 c-6 10 -25 14 -25 6z" />
    <path d="M10440 3286 c0 -2 8 -10 18 -17 l17 -14 -14 18 c-13 16 -21 21 -21
13z" />
    <path d="M14470 3276 c0 -2 8 -10 18 -17 l17 -14 -14 18 c-13 16 -21 21 -21
13z" />
    <path d="M12300 3241 c0 -6 4 -13 10 -16 l10 -6 -6 15 c-7 18 -14 21 -14 7z" />
    <path d="M14298 3243 c7 -3 16 -2 19 1 4 3 -2 6 -13 5 l-19 -1 13 -5z" />
    <path d="M10010 3231 c0 -6 4 -13 10 -16 l10 -6 -6 15 c-7 18 -14 21 -14 7z" />
    <path d="M10990 3226 c0 -2 8 -10 18 -17 l17 -14 -14 18 c-13 16 -21 21 -21
13z" />
    <path d="M11622 3190 c0 -14 2 -19 5 -12 2 6 2 18 0 25 -3 6 -5 1 -5 -13z" />
    <path d="M10550 3186 c0 -2 8 -10 18 -17 l17 -14 -14 18 c-13 16 -21 21 -21
13z" />
    <path d="M10040 3166 c0 -2 8 -10 18 -17 l17 -14 -14 18 c-13 16 -21 21 -21
13z" />
    <path d="M11179 3143 l-14 -18 18 14 c16 13 21 21 13 21 -2 0 -10 -8 -17 -17z" />
    <path d="M11900 3145 c0 -5 5 -17 10 -25 5 -8 10 -10 10 -5 0 6 -5 17 -10 25
-5 8 -10 11 -10 5z" />
    <path d="M14001 3134 l1 -19 5 13 c3 7 2 16 -1 19 -3 4 -6 -2 -5 -13z" />
    <path d="M9275 3129 c-4 -6 -5 -12 -2 -15 2 -3 7 2 10 11 7 17 1 20 -8 4z" />
    <path d="M14541 3104 l1 -19 5 13 c3 7 2 16 -1 19 -3 4 -6 -2 -5 -13z" />
    <path d="M14472 3080 c0 -14 2 -19 5 -12 2 6 2 18 0 25 -3 6 -5 1 -5 -13z" />
    <path d="M8680 3080 l-15 -10 12 0 c6 0 15 5 18 10 8 12 4 12 -15 0z" />
    <path d="M12485 3080 c27 -12 43 -12 25 0 -8 5 -22 9 -30 9 l-15 0 20 -9z" />
    <path d="M14541 3054 l1 -19 5 13 c3 7 2 16 -1 19 -3 4 -6 -2 -5 -13z" />
    <path d="M13931 3034 l1 -19 5 13 c3 7 2 16 -1 19 -3 4 -6 -2 -5 -13z" />
    <path d="M14280 2961 c5 -11 15 -23 21 -27 6 -3 3 5 -6 20 -20 30 -30 35 -15
7z" />
    <path d="M13990 2887 c0 -2 15 -16 33 -33 l32 -29 -29 33 c-28 30 -36 37 -36
29z" />
    <path d="M14198 2833 c7 -3 16 -2 19 1 4 3 -2 6 -13 5 l-19 -1 13 -5z" />
    <path d="M8778 2803 c7 -3 16 -2 19 1 4 3 -2 6 -13 5 l-19 -1 13 -5z" />
    <path d="M10918 2803 c7 -3 16 -2 19 1 4 3 -2 6 -13 5 l-19 -1 13 -5z" />
    <path d="M7743 2793 c170 -2 444 -2 610 0 166 1 28 2 -308 2 -335 0 -471 -1
-302 -2z" />
    <path d="M10078 2793 c7 -3 16 -2 19 1 4 3 -2 6 -13 5 l-19 -1 13 -5z" />
    <path d="M10748 2793 c7 -3 16 -2 19 1 4 3 -2 6 -13 5 l-19 -1 13 -5z" />
    <path d="M12908 2793 c156 -2 408 -2 560 0 152 1 25 2 -283 2 -308 0 -433 -1
-277 -2z" />
    <path d="M14335 2790 c-3 -5 -1 -10 4 -10 6 0 11 5 11 10 0 6 -2 10 -4 10 -3
0 -8 -4 -11 -10z" />
    <path d="M10128 2783 c6 -2 18 -2 25 0 6 3 1 5 -13 5 -14 0 -19 -2 -12 -5z" />
    <path d="M10658 2783 c7 -3 16 -2 19 1 4 3 -2 6 -13 5 l-19 -1 13 -5z" />
    <path d="M14178 2773 c7 -3 16 -2 19 1 4 3 -2 6 -13 5 l-19 -1 13 -5z" />
    <path d="M11060 2726 c0 -2 8 -10 18 -17 l17 -14 -14 18 c-13 16 -21 21 -21
13z" />
    <path d="M11170 2626 c0 -2 8 -10 18 -17 l17 -14 -14 18 c-13 16 -21 21 -21
13z" />
    <path d="M11667 2609 c7 -7 15 -10 18 -7 3 3 -2 9 -12 12 l-18 7 12 -12z" />
  </g>
  <g transform="translate(0.000000,1095.000000) scale(0.100000,-0.100000)" fill="#d0e0e8" stroke="none">
    <path d="M10310 8676 c0 -2 7 -7 16 -10 l15 -6 -6 10 c-6 10 -25 14 -25 6z" />
    <path d="M10117 8549 c7 -7 15 -10 18 -7 3 3 -2 9 -12 12 l-18 7 12 -12z" />
    <path d="M10918 8413 c7 -3 16 -2 19 1 4 3 -2 6 -13 5 l-19 -1 13 -5z" />
    <path d="M10600 8286 c0 -2 8 -10 18 -17 l17 -14 -14 18 c-13 16 -21 21 -21
13z" />
    <path d="M11370 8287 c0 -3 12 -12 26 -22 15 -9 23 -12 20 -6 -7 11 -46 35
-46 28z" />
    <path d="M10663 8253 c15 -2 37 -2 50 0 12 2 0 4 -28 4 -27 0 -38 -2 -22 -4z" />
    <path d="M11437 8029 c7 -7 15 -10 18 -7 3 3 -2 9 -12 12 l-18 7 12 -12z" />
    <path d="M11590 7936 c0 -2 8 -10 18 -17 l17 -14 -14 18 c-13 16 -21 21 -21
13z" />
    <path d="M12036 7807 c3 -10 9 -15 12 -12 3 3 0 11 -7 18 l-12 12 7 -18z" />
    <path d="M10929 7673 l-14 -18 18 14 c9 7 17 15 17 17 0 8 -8 3 -21 -13z" />
    <path d="M12206 7637 c3 -10 9 -15 12 -12 3 3 0 11 -7 18 l-12 12 7 -18z" />
    <path d="M12110 7463 c0 -5 12 -20 28 -34 l27 -24 -25 30 c-14 17 -26 32 -27
34 -2 2 -3 0 -3 -6z" />
    <path d="M12556 7177 c3 -10 9 -15 12 -12 3 3 0 11 -7 18 l-12 12 7 -18z" />
    <path d="M10400 7171 c0 -6 4 -13 10 -16 l10 -6 -6 15 c-7 18 -14 21 -14 7z" />
    <path d="M12816 6627 c3 -10 9 -15 12 -12 3 3 0 11 -7 18 l-12 12 7 -18z" />
    <path d="M10591 6424 l1 -19 5 13 c3 7 2 16 -1 19 -3 4 -6 -2 -5 -13z" />
    <path d="M10581 6354 l1 -19 5 13 c3 7 2 16 -1 19 -3 4 -6 -2 -5 -13z" />
    <path d="M11049 6223 l-14 -18 18 14 c9 7 17 15 17 17 0 8 -8 3 -21 -13z" />
    <path d="M10581 6174 l1 -19 5 13 c3 7 2 16 -1 19 -3 4 -6 -2 -5 -13z" />
    <path d="M10935 6059 c-4 -6 -5 -12 -2 -15 2 -3 7 2 10 11 7 17 1 20 -8 4z" />
    <path d="M10881 5834 l1 -19 5 13 c3 7 2 16 -1 19 -3 4 -6 -2 -5 -13z" />
    <path d="M13015 5796 c10 -14 19 -26 22 -26 7 0 -17 39 -28 46 -6 3 -3 -5 6
-20z" />
    <path d="M11376 5677 c3 -10 9 -15 12 -12 3 3 0 11 -7 18 l-12 12 7 -18z" />
    <path d="M10851 5604 l1 -19 5 13 c3 7 2 16 -1 19 -3 4 -6 -2 -5 -13z" />
    <path d="M11300 5536 c0 -2 8 -10 18 -17 l17 -14 -14 18 c-13 16 -21 21 -21
13z" />
    <path d="M10685 5480 c10 -11 20 -20 23 -20 3 0 -3 9 -13 20 -10 11 -20 20
-23 20 -3 0 3 -9 13 -20z" />
    <path d="M13717 5469 c7 -7 15 -10 18 -7 3 3 -2 9 -12 12 l-18 7 12 -12z" />
    <path d="M10720 5456 c0 -2 8 -10 18 -17 l17 -14 -14 18 c-13 16 -21 21 -21
13z" />
    <path d="M11370 5456 c0 -2 7 -9 15 -16 l15 -12 0 10 c0 5 -7 12 -15 16 -8 3
-15 4 -15 2z" />
    <path d="M14055 5390 c10 -11 20 -20 23 -20 3 0 -3 9 -13 20 -10 11 -20 20
-23 20 -3 0 3 -9 13 -20z" />
    <path d="M13915 5330 c3 -5 8 -10 11 -10 2 0 4 5 4 10 0 6 -5 10 -11 10 -5 0
-7 -4 -4 -10z" />
    <path d="M14010 5270 c0 -5 5 -10 11 -10 5 0 7 5 4 10 -3 6 -8 10 -11 10 -2 0
-4 -4 -4 -10z" />
    <path d="M11710 5186 c0 -2 8 -10 18 -17 l17 -14 -14 18 c-13 16 -21 21 -21
13z" />
    <path d="M13908 5173 c7 -3 16 -2 19 1 4 3 -2 6 -13 5 l-19 -1 13 -5z" />
    <path d="M14306 5127 c3 -10 9 -15 12 -12 3 3 0 11 -7 18 l-12 12 7 -18z" />
    <path d="M13380 4941 c0 -6 4 -13 10 -16 l10 -6 -6 15 c-7 18 -14 21 -14 7z" />
    <path d="M13699 4846 c13 -16 51 -41 51 -33 0 2 -15 14 -32 27 l-33 24 14 -18z" />
    <path d="M2318 4753 c12 -2 30 -2 40 0 9 3 -1 5 -23 4 l-40 0 23 -4z" />
    <path d="M4328 4753 c12 -2 32 -2 45 0 12 2 2 4 -23 4 -25 0 -35 -2 -22 -4z" />
    <path d="M13520 4753 c0 -6 8 -17 18 -24 l17 -14 -15 20 c-8 11 -16 22 -17 24
-2 2 -3 0 -3 -6z" />
    <path d="M4125 4700 l-6 -10 15 6 c18 7 21 14 7 14 -6 0 -13 -4 -16 -10z" />
    <path d="M14230 4446 c0 -2 8 -10 18 -17 l17 -14 -14 18 c-13 16 -21 21 -21
13z" />
    <path d="M2308 3617 c-2 -455 0 -827 4 -827 10 0 15 1632 6 1644 -4 6 -9 -362
-10 -817z" />
    <path d="M14237 4309 c7 -7 15 -10 18 -7 3 3 -2 9 -12 12 l-18 7 12 -12z" />
    <path d="M5132 4100 c0 -14 2 -19 5 -12 2 6 2 18 0 25 -3 6 -5 1 -5 -13z" />
    <path d="M4196 4053 l-7 -18 12 12 c7 7 10 15 7 18 -3 3 -9 -2 -12 -12z" />
    <path d="M2936 4007 c3 -10 9 -15 12 -12 3 3 0 11 -7 18 l-12 12 7 -18z" />
    <path d="M2990 3870 c0 -5 5 -10 11 -10 5 0 7 5 4 10 -3 6 -8 10 -11 10 -2 0
-4 -4 -4 -10z" />
    <path d="M5133 3485 c0 -27 2 -38 4 -22 2 15 2 37 0 50 -2 12 -4 0 -4 -28z" />
    <path d="M3220 3340 c0 -5 5 -10 11 -10 5 0 7 5 4 10 -3 6 -8 10 -11 10 -2 0
-4 -4 -4 -10z" />
    <path d="M5566 3147 c3 -10 9 -15 12 -12 3 3 0 11 -7 18 l-12 12 7 -18z" />
    <path d="M3730 3029 c0 -5 5 -7 10 -4 6 3 10 8 10 11 0 2 -4 4 -10 4 -5 0 -10
-5 -10 -11z" />
    <path d="M5200 3021 c0 -6 4 -13 10 -16 l10 -6 -6 15 c-7 18 -14 21 -14 7z" />
    <path d="M5327 2919 c7 -7 15 -10 18 -7 3 3 -2 9 -12 12 l-18 7 12 -12z" />
    <path d="M5487 2849 c7 -7 15 -10 18 -7 3 3 -2 9 -12 12 l-18 7 12 -12z" />
    <path d="M5955 2803 c409 -7 745 -7 745 0 0 4 -204 6 -452 5 -249 -1 -381 -4
-293 -5z" />
    <path d="M6691 2684 l1 -19 5 13 c3 7 2 16 -1 19 -3 4 -6 -2 -5 -13z" />
    <path d="M6650 2559 c0 -5 5 -7 10 -4 6 3 10 8 10 11 0 2 -4 4 -10 4 -5 0 -10
-5 -10 -11z" />
  </g>
  <g transform="translate(0.000000,1095.000000) scale(0.100000,-0.100000)" fill="#3580a0" stroke="none">
    <path d="M10033 8733 c9 -2 25 -2 35 0 9 3 1 5 -18 5 -19 0 -27 -2 -17 -5z" />
    <path d="M10117 8729 c7 -7 15 -10 18 -7 3 3 -2 9 -12 12 l-18 7 12 -12z" />
    <path d="M9856 8663 l-7 -18 12 12 c7 7 10 15 7 18 -3 3 -9 -2 -12 -12z" />
    <path d="M10540 8566 c0 -2 8 -10 18 -17 l17 -14 -14 18 c-13 16 -21 21 -21
13z" />
    <path d="M9949 8543 l-14 -18 18 14 c16 13 21 21 13 21 -2 0 -10 -8 -17 -17z" />
    <path d="M10410 8416 c0 -2 7 -7 16 -10 l15 -6 -6 10 c-6 10 -25 14 -25 6z" />
    <path d="M10868 8413 c7 -3 16 -2 19 1 4 3 -2 6 -13 5 l-19 -1 13 -5z" />
    <path d="M10530 8336 c0 -2 7 -7 16 -10 l15 -6 -6 10 c-6 10 -25 14 -25 6z" />
    <path d="M10828 8243 c7 -3 16 -2 19 1 4 3 -2 6 -13 5 l-19 -1 13 -5z" />
    <path d="M10060 7966 c0 -2 8 -10 18 -17 l17 -14 -14 18 c-13 16 -21 21 -21
13z" />
    <path d="M11900 7920 c0 -5 5 -10 11 -10 5 0 7 5 4 10 -3 6 -8 10 -11 10 -2 0
-4 -4 -4 -10z" />
    <path d="M10300 7841 c0 -6 4 -13 10 -16 l10 -6 -6 15 c-7 18 -14 21 -14 7z" />
    <path d="M11800 7776 c0 -2 8 -10 18 -17 l17 -14 -14 18 c-13 16 -21 21 -21
13z" />
    <path d="M11980 7605 c13 -14 26 -25 28 -25 3 0 -5 11 -18 25 -13 14 -26 25
-28 25 -3 0 5 -11 18 -25z" />
    <path d="M12210 7626 c0 -2 8 -10 18 -17 l17 -14 -14 18 c-13 16 -21 21 -21
13z" />
    <path d="M12159 7402 c5 -10 18 -25 27 -33 l18 -14 -24 33 c-26 35 -36 42 -21
14z" />
    <path d="M10306 7377 c3 -10 9 -15 12 -12 3 3 0 11 -7 18 l-12 12 7 -18z" />
    <path d="M12580 7136 c0 -2 8 -10 18 -17 l17 -14 -14 18 c-13 16 -21 21 -21
13z" />
    <path d="M12526 6807 c3 -10 9 -15 12 -12 3 3 0 11 -7 18 l-12 12 7 -18z" />
    <path d="M10476 6585 c-9 -26 -7 -32 5 -12 6 10 9 21 6 23 -2 3 -7 -2 -11 -11z" />
    <path d="M10441 6314 l1 -19 5 13 c3 7 2 16 -1 19 -3 4 -6 -2 -5 -13z" />
    <path d="M10476 5897 c3 -10 9 -15 12 -12 3 3 0 11 -7 18 l-12 12 7 -18z" />
    <path d="M10530 5720 c0 -5 5 -10 11 -10 5 0 7 5 4 10 -3 6 -8 10 -11 10 -2 0
-4 -4 -4 -10z" />
    <path d="M10861 5674 l1 -19 5 13 c3 7 2 16 -1 19 -3 4 -6 -2 -5 -13z" />
    <path d="M13480 5610 c0 -5 5 -10 11 -10 5 0 7 5 4 10 -3 6 -8 10 -11 10 -2 0
-4 -4 -4 -10z" />
    <path d="M10651 5524 c13 -17 26 -30 28 -27 3 2 -8 16 -24 31 l-28 27 24 -31z" />
    <path d="M10700 5466 c0 -2 7 -7 16 -10 l15 -6 -6 10 c-6 10 -25 14 -25 6z" />
    <path d="M14120 5336 c0 -2 7 -9 15 -16 l15 -13 -6 17 c-3 9 -10 16 -15 16 -5
0 -9 -2 -9 -4z" />
    <path d="M14010 5276 c0 -2 8 -10 18 -17 l17 -14 -14 18 c-13 16 -21 21 -21
13z" />
    <path d="M11690 5211 c0 -6 4 -13 10 -16 l10 -6 -6 15 c-7 18 -14 21 -14 7z" />
    <path d="M13690 5150 l-15 -11 30 7 c37 8 45 14 19 14 -10 0 -26 -5 -34 -10z" />
    <path d="M11790 5076 c0 -2 8 -10 18 -17 l17 -14 -14 18 c-13 16 -21 21 -21
13z" />
    <path d="M11837 5059 c7 -7 15 -10 18 -7 3 3 -2 9 -12 12 l-18 7 12 -12z" />
    <path d="M13670 4876 c0 -2 8 -10 18 -17 l17 -14 -14 18 c-13 16 -21 21 -21
13z" />
    <path d="M13490 4776 c0 -2 7 -7 16 -10 l15 -6 -6 10 c-6 10 -25 14 -25 6z" />
    <path d="M4288 4743 c7 -3 16 -2 19 1 4 3 -2 6 -13 5 l-19 -1 13 -5z" />
    <path d="M13920 4706 c0 -2 8 -10 18 -17 l17 -14 -14 18 c-13 16 -21 21 -21
13z" />
    <path d="M4036 4623 l-7 -18 12 12 c7 7 10 15 7 18 -3 3 -9 -2 -12 -12z" />
    <path d="M4781 4484 l1 -19 5 13 c3 7 2 16 -1 19 -3 4 -6 -2 -5 -13z" />
    <path d="M4372 4435 c-5 -19 -2 -1639 3 -1643 3 -3 6 -3 8 -1 1 2 0 375 -3
829 -3 454 -6 821 -8 815z" />
    <path d="M14265 4290 c10 -11 20 -20 23 -20 3 0 -3 9 -13 20 -10 11 -20 20
-23 20 -3 0 3 -9 13 -20z" />
    <path d="M14380 4206 c0 -2 8 -10 18 -17 l17 -14 -14 18 c-13 16 -21 21 -21
13z" />
    <path d="M3510 3509 c0 -5 5 -7 10 -4 6 3 10 8 10 11 0 2 -4 4 -10 4 -5 0 -10
-5 -10 -11z" />
    <path d="M3160 3481 c0 -6 4 -13 10 -16 l10 -6 -6 15 c-7 18 -14 21 -14 7z" />
    <path d="M3396 3243 l-7 -18 12 12 c7 7 10 15 7 18 -3 3 -9 -2 -12 -12z" />
    <path d="M3795 3169 c-4 -6 -5 -12 -2 -15 2 -3 7 2 10 11 7 17 1 20 -8 4z" />
    <path d="M5647 3079 c7 -7 15 -10 18 -7 3 3 -2 9 -12 12 l-18 7 12 -12z" />
    <path d="M5768 3053 c7 -3 16 -2 19 1 4 3 -2 6 -13 5 l-19 -1 13 -5z" />
    <path d="M6909 2323 l-14 -18 18 14 c16 13 21 21 13 21 -2 0 -10 -8 -17 -17z" />
    <path d="M5140 2220 c0 -5 5 -10 11 -10 5 0 7 5 4 10 -3 6 -8 10 -11 10 -2 0
-4 -4 -4 -10z" />
    <path d="M6458 2213 c7 -3 16 -2 19 1 4 3 -2 6 -13 5 l-19 -1 13 -5z" />
  </g>
  <g transform="translate(0.000000,1095.000000) scale(0.100000,-0.100000)" fill="#669eb7" stroke="none">
    <path d="M10008 8733 c7 -3 16 -2 19 1 4 3 -2 6 -13 5 l-19 -1 13 -5z" />
    <path d="M10888 8413 c7 -3 16 -2 19 1 4 3 -2 6 -13 5 l-19 -1 13 -5z" />
    <path d="M11108 8373 c7 -3 16 -2 19 1 4 3 -2 6 -13 5 l-19 -1 13 -5z" />
    <path d="M11837 7969 c7 -7 15 -10 18 -7 3 3 -2 9 -12 12 l-18 7 12 -12z" />
    <path d="M11540 7966 c0 -3 9 -10 20 -16 11 -6 20 -8 20 -6 0 3 -9 10 -20 16
-11 6 -20 8 -20 6z" />
    <path d="M10813 7943 c9 -2 23 -2 30 0 6 3 -1 5 -18 5 l-30 0 18 -5z" />
    <path d="M10720 7925 c0 -8 2 -15 4 -15 2 0 6 7 10 15 3 8 1 15 -4 15 -6 0
-10 -7 -10 -15z" />
    <path d="M11710 7846 c0 -2 8 -10 18 -17 l17 -14 -14 18 c-13 16 -21 21 -21
13z" />
    <path d="M12520 7230 c6 -11 13 -20 16 -20 2 0 0 9 -6 20 -6 11 -13 20 -16 20
-2 0 0 -9 6 -20z" />
    <path d="M12600 7111 c0 -6 4 -13 10 -16 l10 -6 -6 15 c-7 18 -14 21 -14 7z" />
    <path d="M10650 7076 c0 -2 8 -10 18 -17 l17 -14 -14 18 c-13 16 -21 21 -21
13z" />
    <path d="M10721 6924 l1 -19 5 13 c3 7 2 16 -1 19 -3 4 -6 -2 -5 -13z" />
    <path d="M10536 6833 l-7 -18 12 12 c7 7 10 15 7 18 -3 3 -9 -2 -12 -12z" />
    <path d="M10441 6334 l1 -19 5 13 c3 7 2 16 -1 19 -3 4 -6 -2 -5 -13z" />
    <path d="M10441 6154 l1 -19 5 13 c3 7 2 16 -1 19 -3 4 -6 -2 -5 -13z" />
    <path d="M13180 5916 c0 -2 8 -10 18 -17 l17 -14 -14 18 c-13 16 -21 21 -21
13z" />
    <path d="M10640 5841 c0 -6 4 -13 10 -16 l10 -6 -6 15 c-7 18 -14 21 -14 7z" />
    <path d="M10871 5774 l1 -19 5 13 c3 7 2 16 -1 19 -3 4 -6 -2 -5 -13z" />
    <path d="M13660 5686 c0 -2 7 -9 15 -16 l15 -12 0 10 c0 5 -7 12 -15 16 -8 3
-15 4 -15 2z" />
    <path d="M10730 5646 c0 -2 8 -10 18 -17 l17 -14 -14 18 c-13 16 -21 21 -21
13z" />
    <path d="M11051 5594 l1 -19 5 13 c3 7 2 16 -1 19 -3 4 -6 -2 -5 -13z" />
    <path d="M10846 5583 l-7 -18 12 12 c7 7 10 15 7 18 -3 3 -9 -2 -12 -12z" />
    <path d="M13820 5576 c0 -2 8 -10 18 -17 l17 -14 -14 18 c-13 16 -21 21 -21
13z" />
    <path d="M13890 5346 c0 -2 7 -7 16 -10 l15 -6 -6 10 c-6 10 -25 14 -25 6z" />
    <path d="M13998 5173 c7 -3 16 -2 19 1 4 3 -2 6 -13 5 l-19 -1 13 -5z" />
    <path d="M14115 5040 l-6 -10 15 6 c18 7 21 14 7 14 -6 0 -13 -4 -16 -10z" />
    <path d="M13350 5011 c0 -6 4 -13 10 -16 l10 -6 -6 15 c-7 18 -14 21 -14 7z" />
    <path d="M2760 4400 c0 -5 5 -10 11 -10 5 0 7 5 4 10 -3 6 -8 10 -11 10 -2 0
-4 -4 -4 -10z" />
    <path d="M5808 3053 c18 -2 45 -2 60 0 15 2 0 4 -33 4 -33 0 -45 -2 -27 -4z" />
    <path d="M6543 3053 c32 -2 81 -2 110 0 29 2 3 3 -58 3 -60 0 -84 -1 -52 -3z" />
    <path d="M5180 3046 c0 -2 8 -10 18 -17 l17 -14 -14 18 c-13 16 -21 21 -21 13z" />
    <path d="M3675 2919 c-4 -6 -5 -12 -2 -15 2 -3 7 2 10 11 7 17 1 20 -8 4z" />
    <path d="M2003 2793 c59 -2 155 -2 215 0 59 1 10 3 -108 3 -118 0 -167 -2
-107 -3z" />
    <path d="M4473 2793 c59 -2 155 -2 215 0 59 1 10 3 -108 3 -118 0 -167 -2
-107 -3z" />
    <path d="M6588 2223 c7 -3 16 -2 19 1 4 3 -2 6 -13 5 l-19 -1 13 -5z" />
    <path d="M6488 2213 c7 -3 16 -2 19 1 4 3 -2 6 -13 5 l-19 -1 13 -5z" />
  </g>
  <g transform="translate(0.000000,1095.000000) scale(0.100000,-0.100000)" fill="#f3d19a" stroke="none">
    <path d="M7848 4693 c7 -3 16 -2 19 1 4 3 -2 6 -13 5 l-19 -1 13 -5z" />
    <path d="M7584 4578 l-19 -23 23 19 c12 11 22 21 22 23 0 8 -8 2 -26 -19z" />
    <path d="M9629 4493 l-14 -18 18 14 c16 13 21 21 13 21 -2 0 -10 -8 -17 -17z" />
    <path d="M8403 4433 c170 -2 444 -2 610 0 166 1 28 2 -308 2 -335 0 -471 -1
-302 -2z" />
    <path d="M7998 4423 c7 -3 16 -2 19 1 4 3 -2 6 -13 5 l-19 -1 13 -5z" />
    <path d="M9551 4284 l1 -19 5 13 c3 7 2 16 -1 19 -3 4 -6 -2 -5 -13z" />
    <path d="M10005 3755 c0 -269 1 -378 2 -242 2 137 2 357 0 490 -1 133 -2 22
-2 -248z" />
    <path d="M8088 3883 c7 -3 16 -2 19 1 4 3 -2 6 -13 5 l-19 -1 13 -5z" />
    <path d="M7908 3653 c7 -3 16 -2 19 1 4 3 -2 6 -13 5 l-19 -1 13 -5z" />
    <path d="M8757 3599 c7 -7 15 -10 18 -7 3 3 -2 9 -12 12 l-18 7 12 -12z" />
    <path d="M14223 3383 c9 -2 25 -2 35 0 9 3 1 5 -18 5 -19 0 -27 -2 -17 -5z" />
    <path d="M14310 3376 c0 -2 7 -7 16 -10 l15 -6 -6 10 c-6 10 -25 14 -25 6z" />
    <path d="M14450 3296 c0 -2 8 -10 18 -17 l17 -14 -14 18 c-13 16 -21 21 -21
13z" />
    <path d="M14258 3253 c7 -3 16 -2 19 1 4 3 -2 6 -13 5 l-19 -1 13 -5z" />
    <path d="M9551 3224 l1 -19 5 13 c3 7 2 16 -1 19 -3 4 -6 -2 -5 -13z" />
    <path d="M11616 3165 c-3 -9 -6 -22 -5 -28 0 -7 5 -1 10 12 5 13 8 26 5 28 -2
2 -6 -3 -10 -12z" />
    <path d="M14381 3154 l1 -19 5 13 c3 7 2 16 -1 19 -3 4 -6 -2 -5 -13z" />
    <path d="M8819 3143 l-14 -18 18 14 c16 13 21 21 13 21 -2 0 -10 -8 -17 -17z" />
    <path d="M9281 3144 l1 -19 5 13 c3 7 2 16 -1 19 -3 4 -6 -2 -5 -13z" />
    <path d="M11420 2836 c0 -2 8 -10 18 -17 l17 -14 -14 18 c-13 16 -21 21 -21
13z" />
    <path d="M8668 2793 c6 -2 18 -2 25 0 6 3 1 5 -13 5 -14 0 -19 -2 -12 -5z" />
    <path d="M10768 2793 c7 -3 16 -2 19 1 4 3 -2 6 -13 5 l-19 -1 13 -5z" />
    <path d="M12598 2793 c7 -3 16 -2 19 1 4 3 -2 6 -13 5 l-19 -1 13 -5z" />
    <path d="M11190 2606 c0 -2 8 -10 18 -17 l17 -14 -14 18 c-13 16 -21 21 -21
13z" />
    <path d="M11700 2586 c0 -2 8 -10 18 -17 l17 -14 -14 18 c-13 16 -21 21 -21
13z" />
  </g>
  <g transform="translate(0.000000,1095.000000) scale(0.100000,-0.100000)" fill="#25769a" stroke="none">
    <path d="M10467 8599 c7 -7 15 -10 18 -7 3 3 -2 9 -12 12 l-18 7 12 -12z" />
    <path d="M10361 8447 c2 -1 13 -9 24 -17 l20 -15 -14 18 c-7 9 -18 17 -24 17
-6 0 -8 -1 -6 -3z" />
    <path d="M10470 8380 c0 -5 5 -10 11 -10 5 0 7 5 4 10 -3 6 -8 10 -11 10 -2 0
-4 -4 -4 -10z" />
    <path d="M11080 8386 c0 -2 7 -7 16 -10 l15 -6 -6 10 c-6 10 -25 14 -25 6z" />
    <path d="M11050 8216 c0 -2 7 -7 16 -10 l15 -6 -6 10 c-6 10 -25 14 -25 6z" />
    <path d="M10760 7866 c0 -2 8 -10 18 -17 l17 -14 -14 18 c-13 16 -21 21 -21
13z" />
    <path d="M11930 7655 c14 -16 26 -32 28 -34 1 -2 4 -2 7 1 3 2 -10 18 -28 34
l-32 29 25 -30z" />
    <path d="M12250 7586 c0 -2 8 -10 18 -17 l17 -14 -14 18 c-13 16 -21 21 -21
13z" />
    <path d="M10410 7150 c0 -5 5 -10 11 -10 5 0 7 5 4 10 -3 6 -8 10 -11 10 -2 0
-4 -4 -4 -10z" />
    <path d="M12640 6530 c0 -5 5 -10 11 -10 5 0 7 5 4 10 -3 6 -8 10 -11 10 -2 0
-4 -4 -4 -10z" />
    <path d="M13016 6207 c3 -10 9 -15 12 -12 3 3 0 11 -7 18 l-12 12 7 -18z" />
    <path d="M10441 6174 l1 -19 5 13 c3 7 2 16 -1 19 -3 4 -6 -2 -5 -13z" />
    <path d="M11150 6141 c0 -6 4 -13 10 -16 l10 -6 -6 15 c-7 18 -14 21 -14 7z" />
    <path d="M12980 5840 c0 -5 5 -10 11 -10 5 0 7 5 4 10 -3 6 -8 10 -11 10 -2 0
-4 -4 -4 -10z" />
    <path d="M11380 5666 c0 -2 8 -10 18 -17 l17 -14 -14 18 c-13 16 -21 21 -21
13z" />
    <path d="M11250 5610 c6 -11 13 -20 16 -20 2 0 0 9 -6 20 -6 11 -13 20 -16 20
-2 0 0 -9 6 -20z" />
    <path d="M11045 5579 c-4 -6 -5 -12 -2 -15 2 -3 7 2 10 11 7 17 1 20 -8 4z" />
    <path d="M11445 5560 c3 -5 8 -10 11 -10 2 0 4 5 4 10 0 6 -5 10 -11 10 -5 0
-7 -4 -4 -10z" />
    <path d="M11330 5500 c0 -5 5 -10 11 -10 5 0 7 5 4 10 -3 6 -8 10 -11 10 -2 0
-4 -4 -4 -10z" />
    <path d="M11640 5271 c0 -6 4 -13 10 -16 l10 -6 -6 15 c-7 18 -14 21 -14 7z" />
    <path d="M11860 5026 c0 -2 7 -7 16 -10 l15 -6 -6 10 c-6 10 -25 14 -25 6z" />
    <path d="M4635 4690 c3 -5 8 -10 11 -10 2 0 4 5 4 10 0 6 -5 10 -11 10 -5 0
-7 -4 -4 -10z" />
    <path d="M2650 4616 c0 -2 8 -10 18 -17 l17 -14 -14 18 c-13 16 -21 21 -21 13z" />
    <path d="M14130 4546 c0 -2 8 -10 18 -17 l17 -14 -14 18 c-13 16 -21 21 -21
13z" />
    <path d="M2316 4427 c3 -10 9 -15 12 -12 3 3 0 11 -7 18 l-12 12 7 -18z" />
    <path d="M2765 4390 c3 -5 8 -10 11 -10 2 0 4 5 4 10 0 6 -5 10 -11 10 -5 0
-7 -4 -4 -10z" />
    <path d="M14450 4171 c0 -6 4 -13 10 -16 l10 -6 -6 15 c-7 18 -14 21 -14 7z" />
    <path d="M2486 4047 c3 -10 9 -15 12 -12 3 3 0 11 -7 18 l-12 12 7 -18z" />
    <path d="M2995 3860 c3 -5 8 -10 11 -10 2 0 4 5 4 10 0 6 -5 10 -11 10 -5 0
-7 -4 -4 -10z" />
    <path d="M3560 3619 c0 -5 5 -7 10 -4 6 3 10 8 10 11 0 2 -4 4 -10 4 -5 0 -10
-5 -10 -11z" />
    <path d="M3515 3520 c-3 -5 -1 -10 4 -10 6 0 11 5 11 10 0 6 -2 10 -4 10 -3 0
-8 -4 -11 -10z" />
    <path d="M3225 3330 c3 -5 8 -10 11 -10 2 0 4 5 4 10 0 6 -5 10 -11 10 -5 0
-7 -4 -4 -10z" />
    <path d="M3505 2790 l-6 -10 15 6 c18 7 21 14 7 14 -6 0 -13 -4 -16 -10z" />
    <path d="M7105 2579 c-4 -6 -5 -12 -2 -15 2 -3 7 2 10 11 7 17 1 20 -8 4z" />
    <path d="M7004 2399 c-16 -16 -22 -28 -14 -24 13 5 56 55 47 55 -2 0 -16 -14
-33 -31z" />
    <path d="M5149 2217 c4 -4 302 -6 662 -5 l654 3 -662 5 c-364 3 -659 2 -654
-3z" />
  </g>
  <g transform="translate(0.000000,1095.000000) scale(0.100000,-0.100000)" fill="#146b91" stroke="none">
    <path d="M10436 8615 c10 -8 24 -14 29 -14 6 0 1 6 -9 14 -11 8 -24 15 -30 15
-5 0 -1 -7 10 -15z" />
    <path d="M9785 8539 c-4 -6 -5 -12 -2 -15 2 -3 7 2 10 11 7 17 1 20 -8 4z" />
    <path d="M10235 8500 c3 -5 11 -10 16 -10 6 0 7 5 4 10 -3 6 -11 10 -16 10 -6
0 -7 -4 -4 -10z" />
    <path d="M10699 8441 c13 -12 28 -21 34 -21 12 0 11 0 -28 24 l-30 17 24 -20z" />
    <path d="M9950 8371 c0 -6 4 -13 10 -16 l10 -6 -6 15 c-7 18 -14 21 -14 7z" />
    <path d="M10055 8216 c10 -14 19 -26 22 -26 7 0 -17 39 -28 46 -6 3 -3 -5 6
-20z" />
    <path d="M9950 8116 c0 -2 8 -10 18 -17 l17 -14 -14 18 c-13 16 -21 21 -21 13z" />
    <path d="M10270 7915 c0 -5 5 -17 10 -25 5 -8 10 -10 10 -5 0 6 -5 17 -10 25
-5 8 -10 11 -10 5z" />
    <path d="M10130 7860 c0 -5 5 -10 11 -10 5 0 7 5 4 10 -3 6 -8 10 -11 10 -2 0
-4 -4 -4 -10z" />
    <path d="M11730 7826 c0 -2 7 -7 16 -10 l15 -6 -6 10 c-6 10 -25 14 -25 6z" />
    <path d="M10886 7655 c4 -8 11 -15 16 -15 l10 0 -12 15 c-7 8 -14 15 -16 15
-2 0 -1 -7 2 -15z" />
    <path d="M12010 7570 c0 -5 5 -10 11 -10 5 0 7 5 4 10 -3 6 -8 10 -11 10 -2 0
-4 -4 -4 -10z" />
    <path d="M10240 7551 c0 -5 5 -13 10 -16 6 -3 10 -2 10 4 0 5 -4 13 -10 16 -5
3 -10 2 -10 -4z" />
    <path d="M10470 7351 c0 -5 5 -13 10 -16 6 -3 10 -2 10 4 0 5 -4 13 -10 16 -5
3 -10 2 -10 -4z" />
    <path d="M12330 7170 c6 -11 13 -20 16 -20 2 0 0 9 -6 20 -6 11 -13 20 -16 20
-2 0 0 -9 6 -20z" />
    <path d="M12366 7117 c3 -10 9 -15 12 -12 3 3 0 11 -7 18 l-12 12 7 -18z" />
    <path d="M10470 7050 c0 -5 5 -10 11 -10 5 0 7 5 4 10 -3 6 -8 10 -11 10 -2 0
-4 -4 -4 -10z" />
    <path d="M12652 6510 c7 -10 14 -18 15 -16 6 6 -9 36 -18 36 -5 0 -4 -9 3 -20z" />
    <path d="M10585 6409 c-4 -6 -5 -12 -2 -15 2 -3 7 2 10 11 7 17 1 20 -8 4z" />
    <path d="M12940 6361 c0 -6 4 -13 10 -16 l10 -6 -6 15 c-7 18 -14 21 -14 7z" />
    <path d="M11066 6243 l-7 -18 12 12 c7 7 10 15 7 18 -3 3 -9 -2 -12 -12z" />
    <path d="M13080 6071 c0 -6 4 -13 10 -16 l10 -6 -6 15 c-7 18 -14 21 -14 7z" />
    <path d="M11145 5813 c8 -18 18 -33 20 -33 10 0 4 16 -16 40 l-20 25 16 -32z" />
    <path d="M11190 5727 c0 -14 31 -69 36 -64 3 3 -4 20 -15 38 -12 19 -21 30
-21 26z" />
    <path d="M10535 5710 c3 -5 8 -10 11 -10 2 0 4 5 4 10 0 6 -5 10 -11 10 -5 0
-7 -4 -4 -10z" />
    <path d="M13475 5610 c3 -5 8 -10 11 -10 2 0 4 5 4 10 0 6 -5 10 -11 10 -5 0
-7 -4 -4 -10z" />
    <path d="M13777 5599 c7 -7 15 -10 18 -7 3 3 -2 9 -12 12 l-18 7 12 -12z" />
    <path d="M13670 5500 c0 -5 5 -10 11 -10 5 0 7 5 4 10 -3 6 -8 10 -11 10 -2 0
-4 -4 -4 -10z" />
    <path d="M10945 5420 l-6 -10 15 6 c18 7 21 14 7 14 -6 0 -13 -4 -16 -10z" />
    <path d="M2377 4749 c7 -7 15 -10 18 -7 3 3 -2 9 -12 12 l-18 7 12 -12z" />
    <path d="M4640 4690 c0 -5 5 -10 11 -10 5 0 7 5 4 10 -3 6 -8 10 -11 10 -2 0
-4 -4 -4 -10z" />
    <path d="M4715 4640 c10 -11 20 -20 23 -20 3 0 -3 9 -13 20 -10 11 -20 20 -23
20 -3 0 3 -9 13 -20z" />
    <path d="M14020 4636 c0 -2 8 -10 18 -17 l17 -14 -14 18 c-13 16 -21 21 -21
13z" />
    <path d="M13670 4626 c0 -2 7 -7 16 -10 l15 -6 -6 10 c-6 10 -25 14 -25 6z" />
    <path d="M1917 4573 c-4 -3 -7 -11 -7 -17 l0 -10 12 12 c6 6 9 14 7 17 -3 3
-9 2 -12 -2z" />
    <path d="M2700 4541 c0 -6 4 -13 10 -16 l10 -6 -6 15 c-7 18 -14 21 -14 7z" />
    <path d="M14120 4386 c0 -2 7 -7 16 -10 l15 -6 -6 10 c-6 10 -25 14 -25 6z" />
    <path d="M14180 4346 c0 -2 7 -7 16 -10 l15 -6 -6 10 c-6 10 -25 14 -25 6z" />
    <path d="M14345 4230 c10 -11 20 -20 23 -20 3 0 -3 9 -13 20 -10 11 -20 20
-23 20 -3 0 3 -9 13 -20z" />
    <path d="M2616 3757 c3 -10 9 -15 12 -12 3 3 0 11 -7 18 l-12 12 7 -18z" />
    <path d="M3565 3630 c-3 -5 -1 -10 4 -10 6 0 11 5 11 10 0 6 -2 10 -4 10 -3 0
-8 -4 -11 -10z" />
    <path d="M2710 3541 c0 -5 5 -13 10 -16 6 -3 10 -2 10 4 0 5 -4 13 -10 16 -5
3 -10 2 -10 -4z" />
    <path d="M3735 3040 c-3 -5 -1 -10 4 -10 6 0 11 5 11 10 0 6 -2 10 -4 10 -3 0
-8 -4 -11 -10z" />
    <path d="M3706 2975 c-9 -26 -7 -32 5 -12 6 10 9 21 6 23 -2 3 -7 -2 -11 -11z" />
    <path d="M5260 2966 c0 -2 8 -10 18 -17 l17 -14 -14 18 c-13 16 -21 21 -21 13z" />
    <path d="M3609 2843 l-14 -18 18 14 c9 7 17 15 17 17 0 8 -8 3 -21 -13z" />
    <path d="M5144 2355 c0 -77 2 -107 3 -67 2 40 2 103 0 140 -2 37 -3 4 -3 -73z" />
    <path d="M7040 2439 c0 -5 5 -7 10 -4 6 3 10 8 10 11 0 2 -4 4 -10 4 -5 0 -10
-5 -10 -11z" />
    <path d="M7005 2399 c-4 -6 -5 -12 -2 -15 2 -3 7 2 10 11 7 17 1 20 -8 4z" />
    <path d="M6885 2310 l-6 -10 15 6 c18 7 21 14 7 14 -6 0 -13 -4 -16 -10z" />
  </g>
  <g transform="translate(0.000000,1095.000000) scale(0.100000,-0.100000)" fill="#fcf5ec" stroke="none">
    <path d="M12298 4253 c1 -258 3 -585 5 -728 1 -143 3 67 5 468 1 400 -1 727
-5 727 -5 0 -7 -210 -5 -467z" />
    <path d="M7920 4399 c0 -5 5 -7 10 -4 6 3 10 8 10 11 0 2 -4 4 -10 4 -5 0 -10
-5 -10 -11z" />
    <path d="M7451 4373 c-1 -6 -4 -20 -7 -30 l-6 -18 12 18 c6 10 9 23 6 30 l-4
12 -1 -12z" />
    <path d="M7947 3919 c7 -7 15 -10 18 -7 3 3 -2 9 -12 12 l-18 7 12 -12z" />
    <path d="M8658 3883 c7 -3 16 -2 19 1 4 3 -2 6 -13 5 l-19 -1 13 -5z" />
    <path d="M8807 3569 c7 -7 15 -10 18 -7 3 3 -2 9 -12 12 l-18 7 12 -12z" />
    <path d="M10956 3257 c3 -10 9 -15 12 -12 3 3 0 11 -7 18 l-12 12 7 -18z" />
    <path d="M11060 3166 c0 -2 8 -10 18 -17 l17 -14 -14 18 c-13 16 -21 21 -21
13z" />
    <path d="M9560 3141 c0 -6 4 -13 10 -16 l10 -6 -6 15 c-7 18 -14 21 -14 7z" />
    <path d="M10650 3096 c0 -2 8 -10 18 -17 l17 -14 -14 18 c-13 16 -21 21 -21
13z" />
    <path d="M14330 3070 l-15 -10 12 0 c6 0 15 5 18 10 8 12 4 12 -15 0z" />
    <path d="M9189 2983 l-14 -18 18 14 c16 13 21 21 13 21 -2 0 -10 -8 -17 -17z" />
    <path d="M13950 2953 c0 -6 8 -17 18 -24 l17 -14 -15 20 c-8 11 -16 22 -17 24
-2 2 -3 0 -3 -6z" />
    <path d="M14383 2893 l0 -13 14 11 c7 6 13 12 13 14 0 1 -6 2 -13 2 -8 0 -14
-6 -14 -14z" />
    <path d="M11400 2856 c0 -2 8 -10 18 -17 l17 -14 -14 18 c-13 16 -21 21 -21
13z" />
    <path d="M14315 2850 l-6 -10 15 6 c18 7 21 14 7 14 -6 0 -13 -4 -16 -10z" />
    <path d="M8698 2793 c7 -3 16 -2 19 1 4 3 -2 6 -13 5 l-19 -1 13 -5z" />
    <path d="M10097 2789 c7 -7 15 -10 18 -7 3 3 -2 9 -12 12 l-18 7 12 -12z" />
    <path d="M14120 2790 c8 -5 20 -10 25 -10 6 0 3 5 -5 10 -8 5 -19 10 -25 10
-5 0 -3 -5 5 -10z" />
    <path d="M14340 2789 c0 -5 5 -7 10 -4 6 3 10 8 10 11 0 2 -4 4 -10 4 -5 0
-10 -5 -10 -11z" />
    <path d="M10990 2786 c0 -2 8 -10 18 -17 l17 -14 -14 18 c-13 16 -21 21 -21
13z" />
    <path d="M11680 2606 c0 -2 8 -10 18 -17 l17 -14 -14 18 c-13 16 -21 21 -21
13z" />
    <path d="M11270 2536 c0 -2 8 -10 18 -17 l17 -14 -14 18 c-13 16 -21 21 -21
13z" />
  </g>
  <g transform="translate(0.000000,1095.000000) scale(0.100000,-0.100000)" fill="#ebf2f5" stroke="none">
    <path d="M9985 8730 l-6 -10 15 6 c18 7 21 14 7 14 -6 0 -13 -4 -16 -10z" />
    <path d="M10620 8505 c13 -14 26 -25 28 -25 3 0 -5 11 -18 25 -13 14 -26 25
-28 25 -3 0 5 -11 18 -25z" />
    <path d="M10748 8423 c7 -3 16 -2 19 1 4 3 -2 6 -13 5 l-19 -1 13 -5z" />
    <path d="M10106 8157 c3 -10 9 -15 12 -12 3 3 0 11 -7 18 l-12 12 7 -18z" />
    <path d="M11900 7926 c0 -2 8 -10 18 -17 l17 -14 -14 18 c-13 16 -21 21 -21
13z" />
    <path d="M11970 7866 c0 -2 8 -10 18 -17 l17 -14 -14 18 c-13 16 -21 21 -21
13z" />
    <path d="M10900 7650 l-15 -10 12 0 c6 0 15 5 18 10 8 12 4 12 -15 0z" />
    <path d="M12396 7407 c3 -10 9 -15 12 -12 3 3 0 11 -7 18 l-12 12 7 -18z" />
    <path d="M12460 7316 c0 -2 8 -10 18 -17 l17 -14 -14 18 c-13 16 -21 21 -21
13z" />
    <path d="M10466 7057 c3 -10 9 -15 12 -12 3 3 0 11 -7 18 l-12 12 7 -18z" />
    <path d="M11015 6184 c-9 -15 -12 -23 -6 -20 11 7 35 46 28 46 -3 0 -12 -12
-22 -26z" />
    <path d="M13670 5496 c0 -2 7 -7 16 -10 l15 -6 -6 10 c-6 10 -25 14 -25 6z" />
    <path d="M14240 5206 c0 -2 8 -10 18 -17 l17 -14 -14 18 c-13 16 -21 21 -21
13z" />
    <path d="M13650 4896 c0 -2 8 -10 18 -17 l17 -14 -14 18 c-13 16 -21 21 -21
13z" />
    <path d="M4049 4643 l-14 -18 18 14 c9 7 17 15 17 17 0 8 -8 3 -21 -13z" />
    <path d="M4766 4557 c3 -10 9 -15 12 -12 3 3 0 11 -7 18 l-12 12 7 -18z" />
    <path d="M14160 4366 c0 -2 8 -10 18 -17 l17 -14 -14 18 c-13 16 -21 21 -21
13z" />
    <path d="M5131 4074 l1 -19 5 13 c3 7 2 16 -1 19 -3 4 -6 -2 -5 -13z" />
    <path d="M5133 3555 l0 -40 4 23 c2 12 2 30 0 40 -3 9 -5 -1 -4 -23z" />
    <path d="M2710 3541 c0 -6 4 -13 10 -16 l10 -6 -6 15 c-7 18 -14 21 -14 7z" />
    <path d="M6692 2660 c0 -14 2 -19 5 -12 2 6 2 18 0 25 -3 6 -5 1 -5 -13z" />
    <path d="M6505 2500 l-20 -9 17 0 c9 -1 20 4 23 9 7 11 7 11 -20 0z" />
  </g>
  <g transform="translate(0.000000,1095.000000) scale(0.100000,-0.100000)" fill="#f7e2c1" stroke="none">
    <path d="M8393 4713 c169 -2 445 -2 615 0 169 1 30 2 -308 2 -338 0 -477 -1
-307 -2z" />
    <path d="M11993 4713 c59 -2 155 -2 215 0 59 1 10 3 -108 3 -118 0 -167 -2
-107 -3z" />
    <path d="M7908 4703 c7 -3 16 -2 19 1 4 3 -2 6 -13 5 l-19 -1 13 -5z" />
    <path d="M10005 4690 l-6 -10 15 6 c18 7 21 14 7 14 -6 0 -13 -4 -16 -10z" />
    <path d="M9660 4535 c-7 -9 -11 -17 -9 -20 3 -2 10 5 17 15 14 24 10 26 -8 5z" />
    <path d="M11566 4467 c3 -10 9 -15 12 -12 3 3 0 11 -7 18 l-12 12 7 -18z" />
    <path d="M11611 4350 c0 -8 4 -22 9 -30 12 -18 12 -2 0 25 l-9 20 0 -15z" />
    <path d="M8108 3883 c6 -2 18 -2 25 0 6 3 1 5 -13 5 -14 0 -19 -2 -12 -5z" />
    <path d="M12301 3264 l1 -19 5 13 c3 7 2 16 -1 19 -3 4 -6 -2 -5 -13z" />
    <path d="M10470 3256 c0 -2 8 -10 18 -17 l17 -14 -14 18 c-13 16 -21 21 -21
13z" />
    <path d="M14110 3249 c0 -5 5 -7 10 -4 6 3 10 8 10 11 0 2 -4 4 -10 4 -5 0
-10 -5 -10 -11z" />
    <path d="M14170 3110 c0 -5 5 -10 11 -10 5 0 7 5 4 10 -3 6 -8 10 -11 10 -2 0
-4 -4 -4 -10z" />
    <path d="M8960 2850 l-15 -10 12 0 c6 0 15 5 18 10 8 12 4 12 -15 0z" />
    <path d="M14223 2833 c9 -2 23 -2 30 0 6 3 -1 5 -18 5 l-30 0 18 -5z" />
    <path d="M10970 2797 c14 -8 27 -12 30 -10 7 6 -23 23 -40 23 l-15 0 25 -13z" />
    <path d="M12578 2793 c7 -3 16 -2 19 1 4 3 -2 6 -13 5 l-19 -1 13 -5z" />
  </g>
  <g transform="translate(0.000000,1095.000000) scale(0.100000,-0.100000)" fill="#78abc0" stroke="none">
    <path d="M10088 8733 c7 -3 16 -2 19 1 4 3 -2 6 -13 5 l-19 -1 13 -5z" />
    <path d="M12080 7496 c0 -2 8 -10 18 -17 l17 -14 -14 18 c-13 16 -21 21 -21
13z" />
    <path d="M10581 6384 l1 -19 5 13 c3 7 2 16 -1 19 -3 4 -6 -2 -5 -13z" />
    <path d="M10581 6144 l1 -19 5 13 c3 7 2 16 -1 19 -3 4 -6 -2 -5 -13z" />
    <path d="M13140 5961 c0 -6 4 -13 10 -16 l10 -6 -6 15 c-7 18 -14 21 -14 7z" />
    <path d="M12976 5847 c3 -10 9 -15 12 -12 3 3 0 11 -7 18 l-12 12 7 -18z" />
    <path d="M14023 5173 c9 -2 23 -2 30 0 6 3 -1 5 -18 5 l-30 0 18 -5z" />
    <path d="M14311 5104 l1 -19 5 13 c3 7 2 16 -1 19 -3 4 -6 -2 -5 -13z" />
    <path d="M14008 5023 c7 -3 16 -2 19 1 4 3 -2 6 -13 5 l-19 -1 13 -5z" />
    <path d="M6803 4133 c59 -2 155 -2 215 0 59 1 10 3 -108 3 -118 0 -167 -2
-107 -3z" />
    <path d="M5132 3210 c0 -14 2 -19 5 -12 2 6 2 18 0 25 -3 6 -5 1 -5 -13z" />
    <path d="M5903 3053 c15 -2 39 -2 55 0 15 2 2 4 -28 4 -30 0 -43 -2 -27 -4z" />
    <path d="M6273 3053 c42 -2 112 -2 155 0 42 1 7 3 -78 3 -85 0 -120 -2 -77 -3z" />
  </g>
  <g transform="translate(0.000000,1095.000000) scale(0.100000,-0.100000)" fill="#f7fafa" stroke="none">
    <path d="M9905 8170 c10 -11 20 -20 23 -20 3 0 -3 9 -13 20 -10 11 -20 20 -23
20 -3 0 3 -9 13 -20z" />
    <path d="M12110 7736 c0 -2 8 -10 18 -17 l17 -14 -14 18 c-13 16 -21 21 -21
13z" />
    <path d="M10240 7551 c0 -6 4 -13 10 -16 l10 -6 -6 15 c-7 18 -14 21 -14 7z" />
    <path d="M10530 7233 c0 -6 8 -17 18 -24 l17 -14 -15 20 c-8 11 -16 22 -17 24
-2 2 -3 0 -3 -6z" />
    <path d="M11810 5056 c0 -2 8 -10 18 -17 l17 -14 -14 18 c-13 16 -21 21 -21
13z" />
    <path d="M13650 4646 c0 -2 8 -10 18 -17 l17 -14 -14 18 c-13 16 -21 21 -21
13z" />
    <path d="M11576 4447 c3 -10 9 -15 12 -12 3 3 0 11 -7 18 l-12 12 7 -18z" />
    <path d="M14410 4172 c0 -4 10 -13 23 -21 l22 -14 -19 22 c-20 22 -26 25 -26
13z" />
    <path d="M5131 3594 l1 -19 5 13 c3 7 2 16 -1 19 -3 4 -6 -2 -5 -13z" />
    <path d="M14360 3356 c0 -2 7 -7 16 -10 l15 -6 -6 10 c-6 10 -25 14 -25 6z" />
    <path d="M11930 3071 c0 -6 4 -13 10 -16 l10 -6 -6 15 c-7 18 -14 21 -14 7z" />
    <path d="M3047 2859 c7 -7 15 -10 18 -7 3 3 -2 9 -12 12 l-18 7 12 -12z" />
    <path d="M14380 2810 l-15 -10 12 0 c6 0 15 5 18 10 8 12 4 12 -15 0z" />
  </g>
  <g transform="translate(0.000000,1095.000000) scale(0.100000,-0.100000)" fill="#5090ae" stroke="none">
    <path d="M11810 7996 c0 -2 8 -10 18 -17 l17 -14 -14 18 c-13 16 -21 21 -21
13z" />
    <path d="M10186 7727 c3 -10 9 -15 12 -12 3 3 0 11 -7 18 l-12 12 7 -18z" />
    <path d="M12415 7380 c10 -11 20 -20 23 -20 3 0 -3 9 -13 20 -10 11 -20 20
-23 20 -3 0 3 -9 13 -20z" />
    <path d="M10722 6950 c0 -14 2 -19 5 -12 2 6 2 18 0 25 -3 6 -5 1 -5 -13z" />
    <path d="M14415 4170 c10 -11 20 -20 23 -20 3 0 -3 9 -13 20 -10 11 -20 20
-23 20 -3 0 3 -9 13 -20z" />
    <path d="M5585 3120 c10 -11 20 -20 23 -20 3 0 -3 9 -13 20 -10 11 -20 20 -23
20 -3 0 3 -9 13 -20z" />
  </g>
  <g transform="translate(0.000000,1095.000000) scale(0.100000,-0.100000)" fill="#f9ebd4" stroke="none">
    <path d="M8068 4713 c6 -2 18 -2 25 0 6 3 1 5 -13 5 -14 0 -19 -2 -12 -5z" />
    <path d="M7509 4503 l-14 -18 18 14 c16 13 21 21 13 21 -2 0 -10 -8 -17 -17z" />
    <path d="M8263 3883 c76 -2 198 -2 270 0 73 1 11 3 -138 3 -148 0 -208 -2
-132 -3z" />
    <path d="M7707 3709 c7 -7 15 -10 18 -7 3 3 -2 9 -12 12 l-18 7 12 -12z" />
    <path d="M7927 3649 c7 -7 15 -10 18 -7 3 3 -2 9 -12 12 l-18 7 12 -12z" />
    <path d="M14270 3256 c0 -2 7 -7 16 -10 l15 -6 -6 10 c-6 10 -25 14 -25 6z" />
    <path d="M14172 3158 l3 -53 45 -1 45 -1 -43 4 -44 4 4 50 c1 27 -1 49 -5 49
-4 0 -7 -24 -5 -52z" />
    <path d="M14171 2978 c2 -86 6 -76 11 25 2 31 0 57 -4 57 -5 0 -7 -37 -7 -82z" />
    <path d="M14290 3054 c0 -5 7 -18 15 -28 8 -11 15 -16 15 -10 0 5 -7 18 -15
28 -8 11 -15 16 -15 10z" />
    <path d="M14376 2917 c3 -10 9 -15 12 -12 3 3 0 11 -7 18 l-12 12 7 -18z" />
    <path d="M12227 2849 c7 -7 15 -10 18 -7 3 3 -2 9 -12 12 l-18 7 12 -12z" />
    <path d="M10698 2783 c7 -3 16 -2 19 1 4 3 -2 6 -13 5 l-19 -1 13 -5z" />
    <path d="M11097 2689 c7 -7 15 -10 18 -7 3 3 -2 9 -12 12 l-18 7 12 -12z" />
  </g>
  <g transform="translate(0.000000,1095.000000) scale(0.100000,-0.100000)" fill="#8bb6c9" stroke="none">
    <path d="M11425 5400 c10 -11 20 -20 23 -20 3 0 -3 9 -13 20 -10 11 -20 20
-23 20 -3 0 3 -9 13 -20z" />
    <path d="M13968 5173 c7 -3 16 -2 19 1 4 3 -2 6 -13 5 l-19 -1 13 -5z" />
    <path d="M14058 5173 c7 -3 16 -2 19 1 4 3 -2 6 -13 5 l-19 -1 13 -5z" />
    <path d="M14160 4516 c0 -2 8 -10 18 -17 l17 -14 -14 18 c-13 16 -21 21 -21
13z" />
    <path d="M5133 3255 l0 -40 4 23 c2 12 2 30 0 40 -3 9 -5 -1 -4 -23z" />
    <path d="M5131 3184 l1 -19 5 13 c3 7 2 16 -1 19 -3 4 -6 -2 -5 -13z" />
    <path d="M6028 3053 c34 -2 90 -2 125 0 34 2 6 3 -63 3 -69 0 -97 -1 -62 -3z" />
  </g>
  <g transform="translate(0.000000,1095.000000) scale(0.100000,-0.100000)" fill="#f0c57f" stroke="none">
    <path d="M11078 4703 c7 -3 16 -2 19 1 4 3 -2 6 -13 5 l-19 -1 13 -5z" />
    <path d="M11540 4496 c0 -2 8 -10 18 -17 l17 -14 -14 18 c-13 16 -21 21 -21
13z" />
    <path d="M7441 4324 l1 -19 5 13 c3 7 2 16 -1 19 -3 4 -6 -2 -5 -13z" />
    <path d="M10001 4244 l1 -19 5 13 c3 7 2 16 -1 19 -3 4 -6 -2 -5 -13z" />
    <path d="M14145 3370 l-6 -10 15 6 c18 7 21 14 7 14 -6 0 -13 -4 -16 -10z" />
    <path d="M14435 3310 c10 -11 20 -20 23 -20 3 0 -3 9 -13 20 -10 11 -20 20
-23 20 -3 0 3 -9 13 -20z" />
    <path d="M14114 3247 c-2 -7 -3 -89 -1 -182 l3 -170 2 177 2 177 73 4 72 3
-73 2 -73 2 -5 -13z" />
    <path d="M14049 3233 l-14 -18 18 14 c16 13 21 21 13 21 -2 0 -10 -8 -17 -17z" />
    <path d="M14193 3203 c15 -2 37 -2 50 0 12 2 0 4 -28 4 -27 0 -38 -2 -22 -4z" />
    <path d="M10938 2803 c7 -3 16 -2 19 1 4 3 -2 6 -13 5 l-19 -1 13 -5z" />
    <path d="M12458 2803 c7 -3 16 -2 19 1 4 3 -2 6 -13 5 l-19 -1 13 -5z" />
    <path d="M8648 2793 c7 -3 16 -2 19 1 4 3 -2 6 -13 5 l-19 -1 13 -5z" />
    <path d="M12618 2793 c7 -3 16 -2 19 1 4 3 -2 6 -13 5 l-19 -1 13 -5z" />
    <path d="M10678 2783 c7 -3 16 -2 19 1 4 3 -2 6 -13 5 l-19 -1 13 -5z" />
  </g>
  <g transform="translate(0.000000,1095.000000) scale(0.100000,-0.100000)" fill="#9fc2d1" stroke="none">
    <path d="M11390 5436 c0 -2 8 -10 18 -17 l17 -14 -14 18 c-13 16 -21 21 -21
13z" />
    <path d="M11440 5386 c0 -2 8 -10 18 -17 l17 -14 -14 18 c-13 16 -21 21 -21
13z" />
    <path d="M13948 5173 c7 -3 16 -2 19 1 4 3 -2 6 -13 5 l-19 -1 13 -5z" />
    <path d="M14078 5173 c7 -3 16 -2 19 1 4 3 -2 6 -13 5 l-19 -1 13 -5z" />
    <path d="M11710 5146 c0 -2 8 -10 18 -17 l17 -14 -14 18 c-13 16 -21 21 -21
13z" />
    <path d="M5133 3315 l0 -40 4 23 c2 12 2 30 0 40 -3 9 -5 -1 -4 -23z" />
  </g>
  <g transform="translate(0.000000,1095.000000) scale(0.100000,-0.100000)" fill="#afccd9" stroke="none">
    <path d="M11460 5366 c0 -2 8 -10 18 -17 l17 -14 -14 18 c-13 16 -21 21 -21
13z" />
    <path d="M5133 3375 l0 -40 4 23 c2 12 2 30 0 40 -3 9 -5 -1 -4 -23z" />
  </g>
  <g transform="translate(0.000000,1095.000000) scale(0.100000,-0.100000)" fill="#e7a12c" stroke="none">
    <path d="M8078 3633 c7 -3 16 -2 19 1 4 3 -2 6 -13 5 l-19 -1 13 -5z" />
    <path d="M8820 3566 c0 -2 8 -10 18 -17 l17 -14 -14 18 c-13 16 -21 21 -21 13z" />
    <path d="M14542 3080 c0 -14 2 -19 5 -12 2 6 2 18 0 25 -3 6 -5 1 -5 -13z" />
    <path d="M14170 3056 c0 -2 15 -6 34 -8 19 -2 32 0 30 4 -5 8 -64 12 -64 4z" />
    <path d="M10158 2783 c7 -3 16 -2 19 1 4 3 -2 6 -13 5 l-19 -1 13 -5z" />
  </g>
  <g transform="translate(0.000000,1095.000000) scale(0.100000,-0.100000)" fill="#c1d7e1" stroke="none">
    <path d="M5132 3425 l0 -30 5 18 c2 9 2 23 0 30 -3 6 -5 -1 -5 -18z" />
    <path d="M6693 2745 c0 -33 2 -45 4 -27 2 18 2 45 0 60 -2 15 -4 0 -4 -33z" />
  </g>
  <g transform="translate(0.000000,1095.000000) scale(0.100000,-0.100000)" fill="#e49512" stroke="none">
    <path d="M11147 4379 c7 -7 15 -10 18 -7 3 3 -2 9 -12 12 l-18 7 12 -12z" />
  </g>
  <g transform="translate(0.000000,1095.000000) scale(0.100000,-0.100000)" fill="#f5daaf" stroke="none" />
</svg>