<?xml version="1.0" encoding="UTF-8"?>
<svg xmlns="http://www.w3.org/2000/svg" xmlns:xlink="http://www.w3.org/1999/xlink" viewBox="0 0 50 50" width="50px" height="50px">
<g id="surface49162035">
<path style=" stroke:none;fill-rule:nonzero;fill:rgb(22.745098%,74.509805%,60.784316%);fill-opacity:1;" d="M 29.796875 11 C 29.433594 10.992188 29.113281 11.128906 28.949219 11.535156 C 28.667969 12.210938 29.367188 12.875 29.613281 13.222656 C 29.789062 13.460938 30.011719 13.730469 30.136719 14 C 30.21875 14.179688 30.230469 14.359375 30.300781 14.546875 C 30.472656 15.011719 30.75 15.542969 30.972656 15.972656 C 31.085938 16.191406 31.210938 16.421875 31.351562 16.613281 C 31.441406 16.734375 31.589844 16.789062 31.613281 16.96875 C 31.46875 17.175781 31.457031 17.496094 31.375 17.757812 C 31.007812 18.925781 31.144531 20.382812 31.683594 21.246094 C 31.851562 21.511719 32.242188 22.082031 32.777344 21.863281 C 33.246094 21.671875 33.140625 21.082031 33.277344 20.554688 C 33.304688 20.441406 33.289062 20.351562 33.347656 20.273438 L 33.347656 20.296875 C 33.488281 20.582031 33.632812 20.867188 33.773438 21.152344 C 34.09375 21.660156 34.65625 22.191406 35.128906 22.554688 C 35.375 22.738281 35.570312 23.0625 35.886719 23.171875 L 35.886719 23.148438 L 35.863281 23.148438 C 35.804688 23.050781 35.707031 23.011719 35.628906 22.933594 C 35.441406 22.75 35.234375 22.523438 35.082031 22.3125 C 34.648438 21.726562 34.265625 21.082031 33.917969 20.414062 C 33.753906 20.097656 33.605469 19.742188 33.46875 19.417969 C 33.414062 19.292969 33.414062 19.101562 33.300781 19.035156 C 33.144531 19.277344 32.921875 19.46875 32.800781 19.75 C 32.613281 20.199219 32.585938 20.75 32.515625 21.316406 C 32.472656 21.332031 32.492188 21.320312 32.46875 21.34375 C 32.140625 21.261719 32.019531 20.917969 31.898438 20.628906 C 31.589844 19.890625 31.527344 18.699219 31.804688 17.851562 C 31.875 17.628906 32.195312 16.9375 32.066406 16.734375 C 32.003906 16.53125 31.800781 16.414062 31.6875 16.257812 C 31.542969 16.066406 31.402344 15.816406 31.308594 15.59375 C 31.050781 15.015625 30.8125 14.347656 30.542969 13.765625 C 30.414062 13.484375 30.199219 13.207031 30.019531 12.957031 C 29.820312 12.683594 29.601562 12.484375 29.449219 12.148438 C 29.394531 12.03125 29.320312 11.84375 29.402344 11.722656 C 29.425781 11.640625 29.460938 11.609375 29.542969 11.582031 C 29.679688 11.472656 30.0625 11.613281 30.210938 11.675781 C 30.589844 11.832031 30.910156 11.984375 31.230469 12.195312 C 31.386719 12.300781 31.539062 12.496094 31.730469 12.554688 L 31.941406 12.554688 C 32.277344 12.632812 32.652344 12.578125 32.960938 12.675781 C 33.515625 12.839844 34.011719 13.101562 34.457031 13.386719 C 35.828125 14.246094 36.949219 15.476562 37.710938 16.945312 C 37.835938 17.183594 37.890625 17.410156 38 17.660156 C 38.214844 18.164062 38.492188 18.6875 38.710938 19.179688 C 38.925781 19.675781 39.140625 20.167969 39.445312 20.578125 C 39.605469 20.796875 40.234375 20.914062 40.515625 21.03125 C 40.710938 21.117188 41.039062 21.207031 41.226562 21.316406 C 41.585938 21.535156 41.933594 21.792969 42.269531 22.03125 C 42.441406 22.148438 42.957031 22.410156 42.984375 22.625 C 42.148438 22.601562 41.511719 22.679688 40.96875 22.910156 C 40.8125 22.976562 40.5625 22.976562 40.539062 23.171875 C 40.621094 23.257812 40.636719 23.394531 40.703125 23.503906 C 40.835938 23.710938 41.054688 23.996094 41.25 24.144531 C 41.464844 24.304688 41.683594 24.476562 41.914062 24.621094 C 42.324219 24.867188 42.777344 25.007812 43.171875 25.257812 C 43.40625 25.40625 43.636719 25.59375 43.863281 25.757812 C 43.976562 25.839844 44.046875 25.96875 44.195312 26.019531 L 44.195312 25.996094 C 44.117188 25.898438 44.101562 25.765625 44.03125 25.664062 L 43.71875 25.351562 C 43.417969 24.953125 43.035156 24.601562 42.625 24.308594 C 42.300781 24.078125 41.574219 23.761719 41.441406 23.382812 L 41.417969 23.359375 C 41.644531 23.335938 41.914062 23.25 42.128906 23.191406 C 42.488281 23.097656 42.804688 23.121094 43.171875 23.027344 C 43.335938 22.980469 43.503906 22.929688 43.671875 22.886719 L 43.671875 22.789062 C 43.488281 22.601562 43.351562 22.34375 43.148438 22.171875 C 42.617188 21.71875 42.039062 21.265625 41.4375 20.890625 C 41.109375 20.679688 40.699219 20.542969 40.347656 20.367188 C 40.230469 20.304688 40.023438 20.277344 39.945312 20.175781 C 39.757812 19.941406 39.660156 19.644531 39.515625 19.371094 C 39.21875 18.796875 38.925781 18.171875 38.660156 17.566406 C 38.484375 17.15625 38.363281 16.75 38.140625 16.378906 C 37.0625 14.605469 35.902344 13.535156 34.101562 12.484375 C 33.71875 12.257812 33.261719 12.171875 32.773438 12.058594 C 32.511719 12.039062 32.25 12.023438 31.988281 12.007812 C 31.828125 11.941406 31.664062 11.746094 31.511719 11.648438 C 31.140625 11.417969 30.40625 11.007812 29.796875 11 Z M 32.371094 13.578125 C 32.195312 13.574219 32.074219 13.597656 31.941406 13.625 L 31.941406 13.648438 L 31.964844 13.648438 C 32.046875 13.820312 32.195312 13.929688 32.300781 14.074219 C 32.378906 14.242188 32.457031 14.410156 32.535156 14.574219 L 32.558594 14.550781 C 32.703125 14.449219 32.773438 14.28125 32.773438 14.027344 C 32.714844 13.96875 32.703125 13.890625 32.65625 13.816406 C 32.585938 13.714844 32.457031 13.660156 32.371094 13.578125 Z M 7.007812 23.441406 C 6.773438 23.449219 6.519531 23.496094 6.242188 23.585938 C 5.78125 23.722656 5.550781 24 5.550781 24.5625 L 5.550781 30.445312 L 7.109375 30.445312 L 7.109375 24.707031 L 9.269531 29.613281 C 9.539062 30.222656 9.902344 30.441406 10.617188 30.441406 C 11.335938 30.441406 11.683594 30.222656 11.949219 29.613281 L 14.109375 24.828125 L 14.109375 30.445312 L 15.667969 30.445312 L 15.667969 24.5625 C 15.667969 24 15.441406 23.722656 14.976562 23.585938 C 13.871094 23.234375 13.125 23.535156 12.792969 24.292969 L 10.574219 29.28125 L 8.429688 24.292969 C 8.1875 23.722656 7.699219 23.414062 7.007812 23.441406 Z M 25.96875 23.445312 C 25.355469 23.445312 23.445312 23.515625 23.445312 25 L 23.445312 25.960938 C 23.445312 26.640625 24.042969 27.195312 25.339844 27.332031 C 25.484375 27.34375 25.632812 27.355469 25.777344 27.355469 C 25.777344 27.355469 27.289062 27.324219 27.332031 27.332031 C 28.207031 27.332031 28.109375 28.015625 28.109375 28.109375 L 28.109375 28.890625 C 28.109375 28.996094 28.085938 29.667969 27.324219 29.667969 L 23.445312 29.667969 L 23.445312 30.445312 L 27.339844 30.445312 C 27.847656 30.445312 28.34375 30.339844 28.738281 30.152344 C 29.394531 29.851562 29.667969 29.445312 29.667969 28.910156 L 29.667969 27.796875 C 29.667969 26.605469 28.183594 26.554688 27.332031 26.554688 L 25.777344 26.554688 C 25.167969 26.554688 25.074219 26.183594 25 25.777344 L 25 25 C 25.074219 24.691406 25.210938 24.269531 25.75 24.222656 L 29.667969 24.222656 L 29.667969 23.445312 Z M 31.984375 23.445312 C 30.835938 23.601562 30.433594 24.171875 30.433594 25 L 30.433594 28.890625 C 30.433594 29.644531 30.855469 30.101562 31.722656 30.339844 C 32.015625 30.421875 32.277344 30.453125 32.527344 30.453125 L 34.261719 30.445312 L 35.277344 30.445312 L 36.144531 31.222656 L 37.894531 31.222656 L 36.691406 30.136719 C 37.253906 29.902344 37.433594 29.546875 37.433594 28.875 L 37.433594 25 C 37.433594 24.171875 36.894531 23.601562 35.746094 23.445312 Z M 38.222656 23.445312 L 38.222656 28.855469 C 38.222656 29.792969 38.753906 30.324219 40.160156 30.429688 C 40.289062 30.433594 40.425781 30.445312 40.554688 30.445312 L 44.445312 30.445312 L 44.445312 29.667969 L 40.847656 29.667969 C 40.046875 29.667969 39.777344 29.328125 39.777344 28.847656 L 39.777344 23.445312 Z M 32.910156 24.222656 L 34.914062 24.222656 C 35.441406 24.222656 35.796875 24.648438 35.875 25 C 35.875 25 35.886719 28.621094 35.886719 28.890625 C 35.886719 29.15625 35.738281 29.277344 35.738281 29.277344 L 35.316406 28.890625 L 33.554688 28.890625 L 34.421875 29.667969 L 32.910156 29.667969 C 32.371094 29.667969 32.066406 29.265625 31.988281 28.890625 L 31.988281 25.078125 C 31.988281 24.664062 32.304688 24.222656 32.910156 24.222656 Z M 16.445312 25.777344 C 16.472656 25.808594 16.445312 29.09375 16.445312 29.15625 C 16.457031 29.835938 17.320312 30.433594 18.671875 30.445312 L 21.109375 30.445312 L 21.109375 30.496094 C 21.109375 30.640625 21.21875 31.128906 20.332031 31.222656 C 20.324219 31.222656 16.453125 31.222656 16.445312 31.222656 L 16.445312 32 L 20.5 32 C 21.1875 31.976562 22.675781 31.824219 22.667969 30.632812 C 22.667969 30.613281 22.671875 25.777344 22.667969 25.777344 L 21.109375 25.777344 L 21.109375 29.667969 C 21.085938 29.667969 19.183594 29.671875 18.800781 29.667969 C 18.050781 29.65625 17.988281 29.226562 18 29.0625 L 18 25.777344 Z M 16.445312 25.777344 "/>
</g>
</svg>
